<svg version="1.1" xmlns="http://www.w3.org/2000/svg" xmlns:xlink="http://www.w3.org/1999/xlink" width="1382.9072265625" height="619"><defs/><g><g><path fill="#ffffff" stroke="none" paint-order="stroke fill markers" d=" M 55.5245223721591 17.299999999999997 C 55.5245223721591 13.82060576 58.40292409434092 11 61.95361328125 11 C 65.50430246815908 11 68.3827041903409 13.82060576 68.3827041903409 17.299999999999997 C 68.3827041903409 20.779394239999995 65.50430246815908 23.6 61.95361328125 23.6 C 58.40292409434092 23.6 55.5245223721591 20.779394239999995 55.5245223721591 17.299999999999997 Z"/></g><g><path fill="none" stroke="#000000" paint-order="fill stroke markers" d=" M 55.5245223721591 17.299999999999997 C 55.5245223721591 13.82060576 58.40292409434092 11 61.95361328125 11 C 65.50430246815908 11 68.3827041903409 13.82060576 68.3827041903409 17.299999999999997 C 68.3827041903409 20.779394239999995 65.50430246815908 23.6 61.95361328125 23.6 C 58.40292409434092 23.6 55.5245223721591 20.779394239999995 55.5245223721591 17.299999999999997 Z" stroke-miterlimit="10" stroke-dasharray=""/></g><g><path fill="none" stroke="#000000" paint-order="fill stroke markers" d=" M 61.95361328125 23.6 L 61.95361328125 36.400000000000006" stroke-miterlimit="10" stroke-dasharray=""/></g><g><path fill="none" stroke="#000000" paint-order="fill stroke markers" d=" M 55.14634055397727 28.4 L 68.76088600852273 28.4" stroke-miterlimit="10" stroke-dasharray=""/></g><g><path fill="none" stroke="#000000" paint-order="fill stroke markers" d=" M 61.95361328125 36.400000000000006 L 52.49906782670455 49" stroke-miterlimit="10" stroke-dasharray=""/></g><g><path fill="none" stroke="#000000" paint-order="fill stroke markers" d=" M 61.95361328125 36.400000000000006 L 71.40815873579545 49" stroke-miterlimit="10" stroke-dasharray=""/></g><g><g><path fill="none" stroke="none"/><text fill="#000000" stroke="none" font-family="Arial" font-size="13px" font-style="normal" font-weight="bold" text-decoration="undefined" x="92.45361328125" y="93.5" text-anchor="middle" dominant-baseline="central" transform="matrix(1 0 0 1 -30 -30)">r: Rider</text></g></g><g><path fill="none" stroke="#000000" paint-order="fill stroke markers" d=" M 62.5 76 L 62.5 220" stroke-miterlimit="10" stroke-dasharray="3"/></g><g><rect fill="#C0C0C0" stroke="none" x="191" y="47" width="166.62451171875" height="40" transform="matrix(1 0 0 1 -30 -30)" fill-opacity="0.2"/></g><g><rect fill="#ffffff" stroke="none" x="184" y="40" width="166.62451171875" height="40" transform="matrix(1 0 0 1 -30 -30)"/></g><g><path fill="none" stroke="#000000" paint-order="fill stroke markers" d=" M 154 10 L 320.62451171875 10 L 320.62451171875 50 L 154 50 L 154 10 Z Z" stroke-miterlimit="10" stroke-dasharray=""/></g><g><g><path fill="none" stroke="none"/><text fill="#000000" stroke="none" font-family="Arial" font-size="13px" font-style="normal" font-weight="bold" text-decoration="undefined" x="267.812255859375" y="53.5" text-anchor="middle" dominant-baseline="central" transform="matrix(1 0 0 1 -30 -30)">: FindRidesGUI</text></g></g><g><path fill="none" stroke="#000000" paint-order="fill stroke markers" d=" M 237.5 51 L 237.5 609" stroke-miterlimit="10" stroke-dasharray="3"/></g><g><path fill="#ffffff" stroke="none" paint-order="stroke fill markers" d=" M 34 146 L 167 146 L 177 156 L 177 200 L 34 200 L 34 146"/></g><g><path fill="none" stroke="#000000" paint-order="fill stroke markers" d=" M 34 146 L 167 146 L 177 156 L 177 200 L 34 200 L 34 146 L 34 146" stroke-miterlimit="10" stroke-dasharray=""/></g><g><path fill="none" stroke="#000000" paint-order="fill stroke markers" d=" M 167 146 L 167 156 L 177 156 L 167 146" stroke-miterlimit="10" stroke-dasharray=""/></g><g><g><path fill="none" stroke="none"/><text fill="#000000" stroke="none" font-family="Arial" font-size="13px" font-style="normal" font-weight="normal" text-decoration="undefined" x="69" y="181" text-anchor="start" dominant-baseline="text-before-edge" transform="matrix(1 0 0 1 -30 -30)">dc = departCity</text></g></g><g><g><path fill="none" stroke="none"/><text fill="#000000" stroke="none" font-family="Arial" font-size="13px" font-style="normal" font-weight="normal" text-decoration="undefined" x="69" y="196" text-anchor="start" dominant-baseline="text-before-edge" transform="matrix(1 0 0 1 -30 -30)">ac = arrivalCity</text></g></g><g><g><path fill="none" stroke="none"/><text fill="#000000" stroke="none" font-family="Arial" font-size="13px" font-style="normal" font-weight="normal" text-decoration="undefined" x="69" y="211" text-anchor="start" dominant-baseline="text-before-edge" transform="matrix(1 0 0 1 -30 -30)">n = numSeats</text></g></g><g><rect fill="#C0C0C0" stroke="none" x="439" y="47" width="142.80810546875" height="40" transform="matrix(1 0 0 1 -30 -30)" fill-opacity="0.2"/></g><g><rect fill="#ffffff" stroke="none" x="432" y="40" width="142.80810546875" height="40" transform="matrix(1 0 0 1 -30 -30)"/></g><g><path fill="none" stroke="#000000" paint-order="fill stroke markers" d=" M 402 10 L 544.80810546875 10 L 544.80810546875 50 L 402 50 L 402 10 Z Z" stroke-miterlimit="10" stroke-dasharray=""/></g><g><g><path fill="none" stroke="none"/><text fill="#000000" stroke="none" font-family="Arial" font-size="13px" font-style="normal" font-weight="bold" text-decoration="undefined" x="503.904052734375" y="53.5" text-anchor="middle" dominant-baseline="central" transform="matrix(1 0 0 1 -30 -30)">: BLFacade</text></g></g><g><path fill="none" stroke="#000000" paint-order="fill stroke markers" d=" M 473.5 51 L 473.5 348" stroke-miterlimit="10" stroke-dasharray="3"/></g><g><path fill="none" stroke="#000000" paint-order="fill stroke markers" d=" M 123 145 L 146 106" stroke-miterlimit="10" stroke-dasharray="3"/></g><g><rect fill="#C0C0C0" stroke="none" x="687" y="47" width="154.392578125" height="40" transform="matrix(1 0 0 1 -30 -30)" fill-opacity="0.2"/></g><g><rect fill="#ffffff" stroke="none" x="680" y="40" width="154.392578125" height="40" transform="matrix(1 0 0 1 -30 -30)"/></g><g><path fill="none" stroke="#000000" paint-order="fill stroke markers" d=" M 650 10 L 804.392578125 10 L 804.392578125 50 L 650 50 L 650 10 Z Z" stroke-miterlimit="10" stroke-dasharray=""/></g><g><g><path fill="none" stroke="none"/><text fill="#000000" stroke="none" font-family="Arial" font-size="13px" font-style="normal" font-weight="bold" text-decoration="undefined" x="757.6962890625" y="53.5" text-anchor="middle" dominant-baseline="central" transform="matrix(1 0 0 1 -30 -30)">: DataAccess</text></g></g><g><path fill="none" stroke="#000000" paint-order="fill stroke markers" d=" M 727.5 51 L 727.5 609" stroke-miterlimit="10" stroke-dasharray="3"/></g><g><path fill="#ffffff" stroke="none" paint-order="stroke fill markers" d=" M 274 82 L 423 82 L 433 92 L 433 106 L 274 106 L 274 82"/></g><g><path fill="none" stroke="#000000" paint-order="fill stroke markers" d=" M 274 82 L 423 82 L 433 92 L 433 106 L 274 106 L 274 82 L 274 82" stroke-miterlimit="10" stroke-dasharray=""/></g><g><path fill="none" stroke="#000000" paint-order="fill stroke markers" d=" M 423 82 L 423 92 L 433 92 L 423 82" stroke-miterlimit="10" stroke-dasharray=""/></g><g><g><path fill="none" stroke="none"/><text fill="#000000" stroke="none" font-family="Arial" font-size="13px" font-style="normal" font-weight="normal" text-decoration="undefined" x="309" y="117" text-anchor="start" dominant-baseline="text-before-edge" transform="matrix(1 0 0 1 -30 -30)">rr: ReservationRequest</text></g></g><g><path fill="none" stroke="#000000" paint-order="fill stroke markers" d=" M 325 108 L 274 132" stroke-miterlimit="10" stroke-dasharray="3"/></g><g><rect fill="#C0C0C0" stroke="none" x="943" y="47" width="170.2490234375" height="40" transform="matrix(1 0 0 1 -30 -30)" fill-opacity="0.2"/></g><g><rect fill="#ffffff" stroke="none" x="936" y="40" width="170.2490234375" height="40" transform="matrix(1 0 0 1 -30 -30)"/></g><g><path fill="none" stroke="#000000" paint-order="fill stroke markers" d=" M 906 10 L 1076.2490234375 10 L 1076.2490234375 50 L 906 50 L 906 10 Z Z" stroke-miterlimit="10" stroke-dasharray=""/></g><g><g><path fill="none" stroke="none"/><text fill="#000000" stroke="none" font-family="Arial" font-size="13px" font-style="normal" font-weight="bold" text-decoration="undefined" x="1021.62451171875" y="53.5" text-anchor="middle" dominant-baseline="central" transform="matrix(1 0 0 1 -30 -30)">: EntityManager</text></g></g><g><path fill="none" stroke="#000000" paint-order="fill stroke markers" d=" M 991.5 51 L 991.5 588" stroke-miterlimit="10" stroke-dasharray="3"/></g><g><rect fill="#C0C0C0" stroke="none" x="1151" y="47" width="108.84814453125" height="40" transform="matrix(1 0 0 1 -30 -30)" fill-opacity="0.2"/></g><g><rect fill="#ffffff" stroke="none" x="1144" y="40" width="108.84814453125" height="40" transform="matrix(1 0 0 1 -30 -30)"/></g><g><path fill="none" stroke="#000000" paint-order="fill stroke markers" d=" M 1114 10 L 1222.84814453125 10 L 1222.84814453125 50 L 1114 50 L 1114 10 Z Z" stroke-miterlimit="10" stroke-dasharray=""/></g><g><g><path fill="none" stroke="none"/><text fill="#000000" stroke="none" font-family="Arial" font-size="13px" font-style="normal" font-weight="bold" text-decoration="undefined" x="1198.924072265625" y="53.5" text-anchor="middle" dominant-baseline="central" transform="matrix(1 0 0 1 -30 -30)">: Ride</text></g></g><g><path fill="none" stroke="#000000" paint-order="fill stroke markers" d=" M 1168.5 51 L 1168.5 492" stroke-miterlimit="10" stroke-dasharray="3"/></g><g><rect fill="#C0C0C0" stroke="none" x="1295" y="47" width="113.9072265625" height="40" transform="matrix(1 0 0 1 -30 -30)" fill-opacity="0.2"/></g><g><rect fill="#ffffff" stroke="none" x="1288" y="40" width="113.9072265625" height="40" transform="matrix(1 0 0 1 -30 -30)"/></g><g><path fill="none" stroke="#000000" paint-order="fill stroke markers" d=" M 1258 10 L 1371.9072265625 10 L 1371.9072265625 50 L 1258 50 L 1258 10 Z Z" stroke-miterlimit="10" stroke-dasharray=""/></g><g><g><path fill="none" stroke="none"/><text fill="#000000" stroke="none" font-family="Arial" font-size="13px" font-style="normal" font-weight="bold" text-decoration="undefined" x="1345.45361328125" y="53.5" text-anchor="middle" dominant-baseline="central" transform="matrix(1 0 0 1 -30 -30)">: Rider</text></g></g><g><path fill="none" stroke="#000000" paint-order="fill stroke markers" d=" M 1315.5 51 L 1315.5 548" stroke-miterlimit="10" stroke-dasharray="3"/></g><g><path fill="none" stroke="#000000" paint-order="fill stroke markers" d=" M 63 106 L 230 106" stroke-miterlimit="10" stroke-dasharray=""/></g><g><path fill="#000000" stroke="none" paint-order="stroke fill markers" d=" M 219.83732514237585 110.209517756016 L 230 106 L 219.83732514237585 101.790482243984"/></g><g><path fill="none" stroke="#000000" paint-order="fill stroke markers" d=" M 219.83732514237585 110.209517756016 L 230 106 L 219.83732514237585 101.790482243984 L 219.83732514237585 110.209517756016" stroke-miterlimit="10" stroke-dasharray=""/></g><g><rect fill="#ffffff" stroke="none" x="114" y="120" width="125.72802734375" height="13" transform="matrix(1 0 0 1 -30 -30)"/></g><g><g><path fill="none" stroke="none"/><text fill="#000000" stroke="none" font-family="Arial" font-size="13px" font-style="normal" font-weight="normal" text-decoration="undefined" x="176.864013671875" y="126.5" text-anchor="middle" dominant-baseline="central" transform="matrix(1 0 0 1 -30 -30)">1 : dc, ac, date, n</text></g></g><g><rect fill="#ffffff" stroke="none" x="260" y="136" width="14" height="28" transform="matrix(1 0 0 1 -30 -30)"/></g><g><path fill="none" stroke="#000000" paint-order="fill stroke markers" d=" M 230 106 L 244 106 L 244 134 L 230 134 L 230 106 Z Z" stroke-miterlimit="10" stroke-dasharray=""/></g><g><path fill="none" stroke="#000000" paint-order="fill stroke markers" d=" M 244 122 L 274 122 L 274 142 L 244 142" stroke-miterlimit="10" stroke-dasharray=""/></g><g><path fill="#000000" stroke="none" paint-order="stroke fill markers" d=" M 254.16267485762415 137.790482243984 L 244 142 L 254.16267485762415 146.209517756016"/></g><g><path fill="none" stroke="#000000" paint-order="fill stroke markers" d=" M 254.16267485762415 137.790482243984 L 244 142 L 254.16267485762415 146.209517756016 L 254.16267485762415 137.790482243984" stroke-miterlimit="10" stroke-dasharray=""/></g><g><rect fill="#ffffff" stroke="none" x="312" y="155" width="167.2607421875" height="13" transform="matrix(1 0 0 1 -30 -30)"/></g><g><g><path fill="none" stroke="none"/><text fill="#000000" stroke="none" font-family="Arial" font-size="13px" font-style="normal" font-weight="normal" text-decoration="undefined" x="395.63037109375" y="161.5" text-anchor="middle" dominant-baseline="central" transform="matrix(1 0 0 1 -30 -30)">2 : rr = new(dc, ac, date, n, r)</text></g></g><g><rect fill="#ffffff" stroke="none" x="260" y="172" width="14" height="28" transform="matrix(1 0 0 1 -30 -30)"/></g><g><path fill="none" stroke="#000000" paint-order="fill stroke markers" d=" M 230 142 L 244 142 L 244 170 L 230 170 L 230 142 Z Z" stroke-miterlimit="10" stroke-dasharray=""/></g><g><path fill="none" stroke="#000000" paint-order="fill stroke markers" d=" M 238 202 L 466 202" stroke-miterlimit="10" stroke-dasharray=""/></g><g><path fill="#000000" stroke="none" paint-order="stroke fill markers" d=" M 455.83732514237585 206.209517756016 L 466 202 L 455.83732514237585 197.790482243984"/></g><g><path fill="none" stroke="#000000" paint-order="fill stroke markers" d=" M 455.83732514237585 206.209517756016 L 466 202 L 455.83732514237585 197.790482243984 L 455.83732514237585 206.209517756016" stroke-miterlimit="10" stroke-dasharray=""/></g><g><rect fill="#ffffff" stroke="none" x="271" y="216" width="224" height="13" transform="matrix(1 0 0 1 -30 -30)"/></g><g><g><path fill="none" stroke="none"/><text fill="#000000" stroke="none" font-family="Arial" font-size="13px" font-style="normal" font-weight="normal" text-decoration="undefined" x="383" y="222.5" text-anchor="middle" dominant-baseline="central" transform="matrix(1 0 0 1 -30 -30)">3 : makeReservationRequest(rr)</text></g></g><g><rect fill="#ffffff" stroke="none" x="496" y="232" width="14" height="28" transform="matrix(1 0 0 1 -30 -30)"/></g><g><path fill="none" stroke="#000000" paint-order="fill stroke markers" d=" M 466 202 L 480 202 L 480 230 L 466 230 L 466 202 Z Z" stroke-miterlimit="10" stroke-dasharray=""/></g><g><path fill="none" stroke="#000000" paint-order="fill stroke markers" d=" M 480 218 L 720 218" stroke-miterlimit="10" stroke-dasharray=""/></g><g><path fill="#000000" stroke="none" paint-order="stroke fill markers" d=" M 709.8373251423759 222.209517756016 L 720 218 L 709.8373251423758 213.790482243984"/></g><g><path fill="none" stroke="#000000" paint-order="fill stroke markers" d=" M 709.8373251423759 222.209517756016 L 720 218 L 709.8373251423758 213.790482243984 L 709.8373251423759 222.209517756016" stroke-miterlimit="10" stroke-dasharray=""/></g><g><rect fill="#ffffff" stroke="none" x="521" y="232" width="219" height="13" transform="matrix(1 0 0 1 -30 -30)"/></g><g><g><path fill="none" stroke="none"/><text fill="#000000" stroke="none" font-family="Arial" font-size="13px" font-style="normal" font-weight="normal" text-decoration="undefined" x="630.5" y="238.5" text-anchor="middle" dominant-baseline="central" transform="matrix(1 0 0 1 -30 -30)">4 : addReservationRequest(rr)</text></g></g><g><rect fill="#ffffff" stroke="none" x="750" y="248" width="14" height="28" transform="matrix(1 0 0 1 -30 -30)"/></g><g><path fill="none" stroke="#000000" paint-order="fill stroke markers" d=" M 720 218 L 734 218 L 734 246 L 720 246 L 720 218 Z Z" stroke-miterlimit="10" stroke-dasharray=""/></g><g><path fill="none" stroke="#000000" paint-order="fill stroke markers" d=" M 734 226 L 984 226" stroke-miterlimit="10" stroke-dasharray=""/></g><g><path fill="#000000" stroke="none" paint-order="stroke fill markers" d=" M 973.8373251423759 230.209517756016 L 984 226 L 973.8373251423758 221.790482243984"/></g><g><path fill="none" stroke="#000000" paint-order="fill stroke markers" d=" M 973.8373251423759 230.209517756016 L 984 226 L 973.8373251423758 221.790482243984 L 973.8373251423759 230.209517756016" stroke-miterlimit="10" stroke-dasharray=""/></g><g><rect fill="#ffffff" stroke="none" x="774" y="240" width="230.46435546875" height="13" transform="matrix(1 0 0 1 -30 -30)"/></g><g><g><path fill="none" stroke="none"/><text fill="#000000" stroke="none" font-family="Arial" font-size="13px" font-style="normal" font-weight="normal" text-decoration="undefined" x="889.232177734375" y="246.5" text-anchor="middle" dominant-baseline="central" transform="matrix(1 0 0 1 -30 -30)">5 : find(Ride.class, rr.ride.rideNumber)</text></g></g><g><rect fill="#ffffff" stroke="none" x="1014" y="256" width="14" height="28" transform="matrix(1 0 0 1 -30 -30)"/></g><g><path fill="none" stroke="#000000" paint-order="fill stroke markers" d=" M 984 226 L 998 226 L 998 254 L 984 254 L 984 226 Z Z" stroke-miterlimit="10" stroke-dasharray=""/></g><g><path fill="none" stroke="#000000" paint-order="fill stroke markers" d=" M 728 260 L 984 260" stroke-miterlimit="10" stroke-dasharray=""/></g><g><path fill="#000000" stroke="none" paint-order="stroke fill markers" d=" M 973.8373251423759 264.209517756016 L 984 260 L 973.8373251423758 255.790482243984"/></g><g><path fill="none" stroke="#000000" paint-order="fill stroke markers" d=" M 973.8373251423759 264.209517756016 L 984 260 L 973.8373251423758 255.790482243984 L 973.8373251423759 264.209517756016" stroke-miterlimit="10" stroke-dasharray=""/></g><g><rect fill="#ffffff" stroke="none" x="791" y="274" width="190.00439453125" height="13" transform="matrix(1 0 0 1 -30 -30)"/></g><g><g><path fill="none" stroke="none"/><text fill="#000000" stroke="none" font-family="Arial" font-size="13px" font-style="normal" font-weight="normal" text-decoration="undefined" x="886.002197265625" y="280.5" text-anchor="middle" dominant-baseline="central" transform="matrix(1 0 0 1 -30 -30)">6 : find(Rider.class, rr.rider.email)</text></g></g><g><rect fill="#ffffff" stroke="none" x="1014" y="290" width="14" height="28" transform="matrix(1 0 0 1 -30 -30)"/></g><g><path fill="none" stroke="#000000" paint-order="fill stroke markers" d=" M 984 260 L 998 260 L 998 288 L 984 288 L 984 260 Z Z" stroke-miterlimit="10" stroke-dasharray=""/></g><g><path fill="none" stroke="#000000" paint-order="fill stroke markers" d=" M 727 372 L 238 372" stroke-miterlimit="10" stroke-dasharray="3"/></g><g><path fill="none" stroke="#000000" paint-order="fill stroke markers" d=" M 248.16267485762415 367.790482243984 L 238 372 L 248.16267485762415 376.209517756016" stroke-miterlimit="10" stroke-dasharray=""/></g><g><rect fill="#ffffff" stroke="none" x="489" y="383" width="45.5126953125" height="13" transform="matrix(1 0 0 1 -30 -30)"/></g><g><g><path fill="none" stroke="none"/><text fill="#000000" stroke="none" font-family="Arial" font-size="13px" font-style="normal" font-weight="normal" text-decoration="undefined" x="511.75634765625" y="389.5" text-anchor="middle" dominant-baseline="central" transform="matrix(1 0 0 1 -30 -30)">7 : error</text></g></g><g><path fill="none" stroke="#000000" paint-order="fill stroke markers" d=" M 728 450 L 1161 450" stroke-miterlimit="10" stroke-dasharray=""/></g><g><path fill="#000000" stroke="none" paint-order="stroke fill markers" d=" M 1150.837325142376 454.209517756016 L 1161 450 L 1150.837325142376 445.790482243984"/></g><g><path fill="none" stroke="#000000" paint-order="fill stroke markers" d=" M 1150.837325142376 454.209517756016 L 1161 450 L 1150.837325142376 445.790482243984 L 1150.837325142376 454.209517756016" stroke-miterlimit="10" stroke-dasharray=""/></g><g><rect fill="#ffffff" stroke="none" x="887" y="456" width="174.85888671875" height="13" transform="matrix(1 0 0 1 -30 -30)"/></g><g><g><path fill="none" stroke="none"/><text fill="#000000" stroke="none" font-family="Arial" font-size="13px" font-style="normal" font-weight="normal" text-decoration="undefined" x="974.429443359375" y="462.5" text-anchor="middle" dominant-baseline="central" transform="matrix(1 0 0 1 -30 -30)">8 : addReservationRequest(rr)</text></g></g><g><rect fill="#ffffff" stroke="none" x="1191" y="480" width="14" height="28" transform="matrix(1 0 0 1 -30 -30)"/></g><g><path fill="none" stroke="#000000" paint-order="fill stroke markers" d=" M 1161 450 L 1175 450 L 1175 478 L 1161 478 L 1161 450 Z Z" stroke-miterlimit="10" stroke-dasharray=""/></g><g><path fill="none" stroke="#000000" paint-order="fill stroke markers" d=" M 728 490 L 1308 490" stroke-miterlimit="10" stroke-dasharray=""/></g><g><path fill="#000000" stroke="none" paint-order="stroke fill markers" d=" M 1297.837325142376 494.209517756016 L 1308 490 L 1297.837325142376 485.790482243984"/></g><g><path fill="none" stroke="#000000" paint-order="fill stroke markers" d=" M 1297.837325142376 494.209517756016 L 1308 490 L 1297.837325142376 485.790482243984 L 1297.837325142376 494.209517756016" stroke-miterlimit="10" stroke-dasharray=""/></g><g><rect fill="#ffffff" stroke="none" x="961" y="504" width="174.85888671875" height="13" transform="matrix(1 0 0 1 -30 -30)"/></g><g><g><path fill="none" stroke="none"/><text fill="#000000" stroke="none" font-family="Arial" font-size="13px" font-style="normal" font-weight="normal" text-decoration="undefined" x="1048.429443359375" y="510.5" text-anchor="middle" dominant-baseline="central" transform="matrix(1 0 0 1 -30 -30)">9 : addReservationRequest(rr)</text></g></g><g><rect fill="#ffffff" stroke="none" x="1338" y="520" width="14" height="28" transform="matrix(1 0 0 1 -30 -30)"/></g><g><path fill="none" stroke="#000000" paint-order="fill stroke markers" d=" M 1308 490 L 1322 490 L 1322 518 L 1308 518 L 1308 490 Z Z" stroke-miterlimit="10" stroke-dasharray=""/></g><g><path fill="none" stroke="#000000" paint-order="fill stroke markers" d=" M 728 530 L 984 530" stroke-miterlimit="10" stroke-dasharray=""/></g><g><path fill="#000000" stroke="none" paint-order="stroke fill markers" d=" M 973.8373251423759 534.209517756016 L 984 530 L 973.8373251423758 525.790482243984"/></g><g><path fill="none" stroke="#000000" paint-order="fill stroke markers" d=" M 973.8373251423759 534.209517756016 L 984 530 L 973.8373251423758 525.790482243984 L 973.8373251423759 534.209517756016" stroke-miterlimit="10" stroke-dasharray=""/></g><g><rect fill="#ffffff" stroke="none" x="844" y="541" width="85.2744140625" height="13" transform="matrix(1 0 0 1 -30 -30)"/></g><g><g><path fill="none" stroke="none"/><text fill="#000000" stroke="none" font-family="Arial" font-size="13px" font-style="normal" font-weight="normal" text-decoration="undefined" x="886.63720703125" y="547.5" text-anchor="middle" dominant-baseline="central" transform="matrix(1 0 0 1 -30 -30)">10 : commit()</text></g></g><g><rect fill="#ffffff" stroke="none" x="1014" y="560" width="14" height="28" transform="matrix(1 0 0 1 -30 -30)"/></g><g><path fill="none" stroke="#000000" paint-order="fill stroke markers" d=" M 984 530 L 998 530 L 998 558 L 984 558 L 984 530 Z Z" stroke-miterlimit="10" stroke-dasharray=""/></g><g><path fill="none" stroke="#000000" paint-order="fill stroke markers" d=" M 727 562 L 238 562" stroke-miterlimit="10" stroke-dasharray="3"/></g><g><path fill="none" stroke="#000000" paint-order="fill stroke markers" d=" M 248.16267485762415 557.790482243984 L 238 562 L 248.16267485762415 566.209517756016" stroke-miterlimit="10" stroke-dasharray=""/></g><g><rect fill="#ffffff" stroke="none" x="448" y="575" width="113.9404296875" height="13" transform="matrix(1 0 0 1 -30 -30)"/></g><g><g><path fill="none" stroke="none"/><text fill="#000000" stroke="none" font-family="Arial" font-size="13px" font-style="normal" font-weight="normal" text-decoration="undefined" x="504.97021484375" y="581.5" text-anchor="middle" dominant-baseline="central" transform="matrix(1 0 0 1 -30 -30)">11 : reserva hecha</text></g></g><g><path fill="none" stroke="#000000" paint-order="fill stroke markers" d=" M 674 298 L 1370 298 L 1370 594 L 674 594 L 674 298" stroke-miterlimit="10" stroke-dasharray=""/></g><g><path fill="#ffffff" stroke="none" paint-order="stroke fill markers" d=" M 674 298 L 674 321 L 884.37158203125 321 L 895.87158203125 309.5 L 895.87158203125 298 L 674 298"/></g><g><path fill="none" stroke="#000000" paint-order="fill stroke markers" d=" M 674 298 L 674 321 L 884.37158203125 321 L 895.87158203125 309.5 L 895.87158203125 298 L 674 298 L 674 298" stroke-miterlimit="10" stroke-dasharray=""/></g><g><g><path fill="none" stroke="none"/><text fill="#000000" stroke="none" font-family="Arial" font-size="13px" font-style="normal" font-weight="normal" text-decoration="undefined" x="819.05078125" y="339.5" text-anchor="middle" dominant-baseline="central" transform="matrix(1 0 0 1 -30 -30)">la solicitud de reserva ya existe</text></g></g><g><g><path fill="none" stroke="none"/><text fill="#000000" stroke="none" font-family="Arial" font-size="13px" font-style="normal" font-weight="bold" text-decoration="undefined" x="715.864990234375" y="339.5" text-anchor="middle" dominant-baseline="central" transform="matrix(1 0 0 1 -30 -30)">alt</text></g></g><g><g><path fill="none" stroke="none"/><text fill="#000000" stroke="none" font-family="Arial" font-size="13px" font-style="normal" font-weight="normal" text-decoration="undefined" x="740.735595703125" y="372.5" text-anchor="middle" dominant-baseline="central" transform="matrix(1 0 0 1 -30 -30)">[True]</text></g></g><g><path fill="none" stroke="#000000" paint-order="fill stroke markers" d=" M 674 394 L 1369 394" stroke-miterlimit="10" stroke-dasharray="10,3"/></g><g><g><path fill="none" stroke="none"/><text fill="#000000" stroke="none" font-family="Arial" font-size="13px" font-style="normal" font-weight="normal" text-decoration="undefined" x="743.50634765625" y="445.5" text-anchor="middle" dominant-baseline="central" transform="matrix(1 0 0 1 -30 -30)">[False]</text></g></g></g></svg>