<svg version="1.1" xmlns="http://www.w3.org/2000/svg" xmlns:xlink="http://www.w3.org/1999/xlink" width="1716" height="540"><defs/><g><g><path fill="#ffffff" stroke="none" paint-order="stroke fill markers" d=" M 57.6985946377841 17.299999999999997 C 57.6985946377841 13.82060576 60.576996359965904 11 64.127685546875 11 C 67.6783747337841 11 70.55677645596592 13.82060576 70.55677645596592 17.299999999999997 C 70.55677645596592 20.779394239999995 67.6783747337841 23.6 64.127685546875 23.6 C 60.576996359965904 23.6 57.6985946377841 20.779394239999995 57.6985946377841 17.299999999999997 Z"/></g><g><path fill="none" stroke="#000000" paint-order="fill stroke markers" d=" M 57.6985946377841 17.299999999999997 C 57.6985946377841 13.82060576 60.576996359965904 11 64.127685546875 11 C 67.6783747337841 11 70.55677645596592 13.82060576 70.55677645596592 17.299999999999997 C 70.55677645596592 20.779394239999995 67.6783747337841 23.6 64.127685546875 23.6 C 60.576996359965904 23.6 57.6985946377841 20.779394239999995 57.6985946377841 17.299999999999997 Z" stroke-miterlimit="10" stroke-dasharray=""/></g><g><path fill="none" stroke="#000000" paint-order="fill stroke markers" d=" M 64.127685546875 23.6 L 64.127685546875 36.400000000000006" stroke-miterlimit="10" stroke-dasharray=""/></g><g><path fill="none" stroke="#000000" paint-order="fill stroke markers" d=" M 57.32041281960228 28.4 L 70.93495827414773 28.4" stroke-miterlimit="10" stroke-dasharray=""/></g><g><path fill="none" stroke="#000000" paint-order="fill stroke markers" d=" M 64.127685546875 36.400000000000006 L 54.67314009232955 49" stroke-miterlimit="10" stroke-dasharray=""/></g><g><path fill="none" stroke="#000000" paint-order="fill stroke markers" d=" M 64.127685546875 36.400000000000006 L 73.58223100142047 49" stroke-miterlimit="10" stroke-dasharray=""/></g><g><g><path fill="none" stroke="none"/><text fill="#000000" stroke="none" font-family="Arial" font-size="13px" font-style="normal" font-weight="bold" text-decoration="undefined" x="126.627685546875" y="93.5" text-anchor="middle" dominant-baseline="central" transform="matrix(1 0 0 1 -62 -30)">: Driver</text></g></g><g><path fill="none" stroke="#000000" paint-order="fill stroke markers" d=" M 64.5 76 L 64.5 132" stroke-miterlimit="10" stroke-dasharray="3"/></g><g><rect fill="#C0C0C0" stroke="none" x="247" y="47" width="248.2490234375" height="40" transform="matrix(1 0 0 1 -62 -30)" fill-opacity="0.2"/></g><g><rect fill="#ffffff" stroke="none" x="240" y="40" width="248.2490234375" height="40" transform="matrix(1 0 0 1 -62 -30)"/></g><g><path fill="none" stroke="#000000" paint-order="fill stroke markers" d=" M 178 10 L 426.2490234375 10 L 426.2490234375 50 L 178 50 L 178 10 Z Z" stroke-miterlimit="10" stroke-dasharray=""/></g><g><g><path fill="none" stroke="none"/><text fill="#000000" stroke="none" font-family="Arial" font-size="13px" font-style="normal" font-weight="bold" text-decoration="undefined" x="364.62451171875" y="53.5" text-anchor="middle" dominant-baseline="central" transform="matrix(1 0 0 1 -62 -30)">: ShowPendingRequestsGUI</text></g></g><g><path fill="none" stroke="#000000" paint-order="fill stroke markers" d=" M 302.5 51 L 302.5 521" stroke-miterlimit="10" stroke-dasharray="3"/></g><g><rect fill="#C0C0C0" stroke="none" x="631" y="47" width="142.80810546875" height="40" transform="matrix(1 0 0 1 -62 -30)" fill-opacity="0.2"/></g><g><rect fill="#ffffff" stroke="none" x="624" y="40" width="142.80810546875" height="40" transform="matrix(1 0 0 1 -62 -30)"/></g><g><path fill="none" stroke="#000000" paint-order="fill stroke markers" d=" M 562 10 L 704.80810546875 10 L 704.80810546875 50 L 562 50 L 562 10 Z Z" stroke-miterlimit="10" stroke-dasharray=""/></g><g><g><path fill="none" stroke="none"/><text fill="#000000" stroke="none" font-family="Arial" font-size="13px" font-style="normal" font-weight="bold" text-decoration="undefined" x="695.904052734375" y="53.5" text-anchor="middle" dominant-baseline="central" transform="matrix(1 0 0 1 -62 -30)">: BLFacade</text></g></g><g><path fill="none" stroke="#000000" paint-order="fill stroke markers" d=" M 633.5 51 L 633.5 220" stroke-miterlimit="10" stroke-dasharray="3"/></g><g><rect fill="#C0C0C0" stroke="none" x="911" y="47" width="154.392578125" height="40" transform="matrix(1 0 0 1 -62 -30)" fill-opacity="0.2"/></g><g><rect fill="#ffffff" stroke="none" x="904" y="40" width="154.392578125" height="40" transform="matrix(1 0 0 1 -62 -30)"/></g><g><path fill="none" stroke="#000000" paint-order="fill stroke markers" d=" M 842 10 L 996.392578125 10 L 996.392578125 50 L 842 50 L 842 10 Z Z" stroke-miterlimit="10" stroke-dasharray=""/></g><g><g><path fill="none" stroke="none"/><text fill="#000000" stroke="none" font-family="Arial" font-size="13px" font-style="normal" font-weight="bold" text-decoration="undefined" x="981.6962890625" y="53.5" text-anchor="middle" dominant-baseline="central" transform="matrix(1 0 0 1 -62 -30)">: DataAccess</text></g></g><g><path fill="none" stroke="#000000" paint-order="fill stroke markers" d=" M 919.5 51 L 919.5 521" stroke-miterlimit="10" stroke-dasharray="3"/></g><g><rect fill="#C0C0C0" stroke="none" x="1162" y="47" width="170.2490234375" height="40" transform="matrix(1 0 0 1 -62 -30)" fill-opacity="0.2"/></g><g><rect fill="#ffffff" stroke="none" x="1155" y="40" width="170.2490234375" height="40" transform="matrix(1 0 0 1 -62 -30)"/></g><g><path fill="none" stroke="#000000" paint-order="fill stroke markers" d=" M 1093 10 L 1263.2490234375 10 L 1263.2490234375 50 L 1093 50 L 1093 10 Z Z" stroke-miterlimit="10" stroke-dasharray=""/></g><g><g><path fill="none" stroke="none"/><text fill="#000000" stroke="none" font-family="Arial" font-size="13px" font-style="normal" font-weight="bold" text-decoration="undefined" x="1240.62451171875" y="53.5" text-anchor="middle" dominant-baseline="central" transform="matrix(1 0 0 1 -62 -30)">: EntityManager</text></g></g><g><path fill="none" stroke="#000000" paint-order="fill stroke markers" d=" M 1178.5 51 L 1178.5 452" stroke-miterlimit="10" stroke-dasharray="3"/></g><g><rect fill="#C0C0C0" stroke="none" x="1359" y="47" width="108.84814453125" height="40" transform="matrix(1 0 0 1 -62 -30)" fill-opacity="0.2"/></g><g><rect fill="#ffffff" stroke="none" x="1352" y="40" width="108.84814453125" height="40" transform="matrix(1 0 0 1 -62 -30)"/></g><g><path fill="none" stroke="#000000" paint-order="fill stroke markers" d=" M 1290 10 L 1398.84814453125 10 L 1398.84814453125 50 L 1290 50 L 1290 10 Z Z" stroke-miterlimit="10" stroke-dasharray=""/></g><g><g><path fill="none" stroke="none"/><text fill="#000000" stroke="none" font-family="Arial" font-size="13px" font-style="normal" font-weight="bold" text-decoration="undefined" x="1406.924072265625" y="53.5" text-anchor="middle" dominant-baseline="central" transform="matrix(1 0 0 1 -62 -30)">: Ride</text></g></g><g><path fill="none" stroke="#000000" paint-order="fill stroke markers" d=" M 1344.5 51 L 1344.5 331" stroke-miterlimit="10" stroke-dasharray="3"/></g><g><rect fill="#C0C0C0" stroke="none" x="1503" y="47" width="206.38623046875" height="40" transform="matrix(1 0 0 1 -62 -30)" fill-opacity="0.2"/></g><g><rect fill="#ffffff" stroke="none" x="1496" y="40" width="206.38623046875" height="40" transform="matrix(1 0 0 1 -62 -30)"/></g><g><path fill="none" stroke="#000000" paint-order="fill stroke markers" d=" M 1434 10 L 1640.38623046875 10 L 1640.38623046875 50 L 1434 50 L 1434 10 Z Z" stroke-miterlimit="10" stroke-dasharray=""/></g><g><g><path fill="none" stroke="none"/><text fill="#000000" stroke="none" font-family="Arial" font-size="13px" font-style="normal" font-weight="bold" text-decoration="undefined" x="1599.693115234375" y="53.5" text-anchor="middle" dominant-baseline="central" transform="matrix(1 0 0 1 -62 -30)">: ReservationRequest</text></g></g><g><path fill="none" stroke="#000000" paint-order="fill stroke markers" d=" M 1537.5 51 L 1537.5 428" stroke-miterlimit="10" stroke-dasharray="3"/></g><g><path fill="#ffffff" stroke="none" paint-order="stroke fill markers" d=" M 690 250 L 828.04443359375 250 L 838.04443359375 260 L 838.04443359375 287 L 690 287 L 690 250"/></g><g><path fill="none" stroke="#000000" paint-order="fill stroke markers" d=" M 690 250 L 828.04443359375 250 L 838.04443359375 260 L 838.04443359375 287 L 690 287 L 690 250 L 690 250" stroke-miterlimit="10" stroke-dasharray=""/></g><g><path fill="none" stroke="#000000" paint-order="fill stroke markers" d=" M 828.04443359375 250 L 828.04443359375 260 L 838.04443359375 260 L 828.04443359375 250" stroke-miterlimit="10" stroke-dasharray=""/></g><g><g><path fill="none" stroke="none"/><text fill="#000000" stroke="none" font-family="Arial" font-size="13px" font-style="normal" font-weight="normal" text-decoration="undefined" x="757" y="285" text-anchor="start" dominant-baseline="text-before-edge" transform="matrix(1 0 0 1 -62 -30)">No hay suficientes</text><text fill="#000000" stroke="none" font-family="Arial" font-size="13px" font-style="normal" font-weight="normal" text-decoration="undefined" x="757" y="298" text-anchor="start" dominant-baseline="text-before-edge" transform="matrix(1 0 0 1 -62 -30)">asientos disponibles</text></g></g><g><path fill="none" stroke="#000000" paint-order="fill stroke markers" d=" M 831 289 L 938 321" stroke-miterlimit="10" stroke-dasharray="3"/></g><g><path fill="none" stroke="#000000" paint-order="fill stroke markers" d=" M 65 106 L 295 106" stroke-miterlimit="10" stroke-dasharray=""/></g><g><path fill="#000000" stroke="none" paint-order="stroke fill markers" d=" M 284.83732514237585 110.209517756016 L 295 106 L 284.83732514237585 101.790482243984"/></g><g><path fill="none" stroke="#000000" paint-order="fill stroke markers" d=" M 284.83732514237585 110.209517756016 L 295 106 L 284.83732514237585 101.790482243984 L 284.83732514237585 110.209517756016" stroke-miterlimit="10" stroke-dasharray=""/></g><g><rect fill="#ffffff" stroke="none" x="136" y="120" width="213.16064453125" height="13" transform="matrix(1 0 0 1 -62 -30)"/></g><g><g><path fill="none" stroke="none"/><text fill="#000000" stroke="none" font-family="Arial" font-size="13px" font-style="normal" font-weight="normal" text-decoration="undefined" x="242.580322265625" y="126.5" text-anchor="middle" dominant-baseline="central" transform="matrix(1 0 0 1 -62 -30)">1 : selecciona ReservationRequest rr</text></g></g><g><rect fill="#ffffff" stroke="none" x="357" y="136" width="14" height="28" transform="matrix(1 0 0 1 -62 -30)"/></g><g><path fill="none" stroke="#000000" paint-order="fill stroke markers" d=" M 295 106 L 309 106 L 309 134 L 295 134 L 295 106 Z Z" stroke-miterlimit="10" stroke-dasharray=""/></g><g><path fill="none" stroke="#000000" paint-order="fill stroke markers" d=" M 303 146 L 626 146" stroke-miterlimit="10" stroke-dasharray=""/></g><g><path fill="#000000" stroke="none" paint-order="stroke fill markers" d=" M 615.8373251423759 150.209517756016 L 626 146 L 615.8373251423758 141.790482243984"/></g><g><path fill="none" stroke="#000000" paint-order="fill stroke markers" d=" M 615.8373251423759 150.209517756016 L 626 146 L 615.8373251423758 141.790482243984 L 615.8373251423759 150.209517756016" stroke-miterlimit="10" stroke-dasharray=""/></g><g><rect fill="#ffffff" stroke="none" x="381" y="160" width="290.31005859375" height="13" transform="matrix(1 0 0 1 -62 -30)"/></g><g><g><path fill="none" stroke="none"/><text fill="#000000" stroke="none" font-family="Arial" font-size="13px" font-style="normal" font-weight="normal" text-decoration="undefined" x="526.155029296875" y="166.5" text-anchor="middle" dominant-baseline="central" transform="matrix(1 0 0 1 -62 -30)">2 : modifyReservationRequestState(rr, "accepted")</text></g></g><g><rect fill="#ffffff" stroke="none" x="688" y="176" width="14" height="28" transform="matrix(1 0 0 1 -62 -30)"/></g><g><path fill="none" stroke="#000000" paint-order="fill stroke markers" d=" M 626 146 L 640 146 L 640 174 L 626 174 L 626 146 Z Z" stroke-miterlimit="10" stroke-dasharray=""/></g><g><path fill="none" stroke="#000000" paint-order="fill stroke markers" d=" M 634 178 L 912 178" stroke-miterlimit="10" stroke-dasharray=""/></g><g><path fill="#000000" stroke="none" paint-order="stroke fill markers" d=" M 901.8373251423759 182.209517756016 L 912 178 L 901.8373251423758 173.790482243984"/></g><g><path fill="none" stroke="#000000" paint-order="fill stroke markers" d=" M 901.8373251423759 182.209517756016 L 912 178 L 901.8373251423758 173.790482243984 L 901.8373251423759 182.209517756016" stroke-miterlimit="10" stroke-dasharray=""/></g><g><rect fill="#ffffff" stroke="none" x="706" y="192" width="259.95556640625" height="13" transform="matrix(1 0 0 1 -62 -30)"/></g><g><g><path fill="none" stroke="none"/><text fill="#000000" stroke="none" font-family="Arial" font-size="13px" font-style="normal" font-weight="normal" text-decoration="undefined" x="835.977783203125" y="198.5" text-anchor="middle" dominant-baseline="central" transform="matrix(1 0 0 1 -62 -30)">3 : modifyReservationRequest(rr, "accepted")</text></g></g><g><rect fill="#ffffff" stroke="none" x="974" y="208" width="14" height="28" transform="matrix(1 0 0 1 -62 -30)"/></g><g><path fill="none" stroke="#000000" paint-order="fill stroke markers" d=" M 912 178 L 926 178 L 926 206 L 912 206 L 912 178 Z Z" stroke-miterlimit="10" stroke-dasharray=""/></g><g><path fill="none" stroke="#000000" paint-order="fill stroke markers" d=" M 920 218 L 1171 218" stroke-miterlimit="10" stroke-dasharray=""/></g><g><path fill="#000000" stroke="none" paint-order="stroke fill markers" d=" M 1160.837325142376 222.209517756016 L 1171 218 L 1160.837325142376 213.790482243984"/></g><g><path fill="none" stroke="#000000" paint-order="fill stroke markers" d=" M 1160.837325142376 222.209517756016 L 1171 218 L 1160.837325142376 213.790482243984 L 1160.837325142376 222.209517756016" stroke-miterlimit="10" stroke-dasharray=""/></g><g><rect fill="#ffffff" stroke="none" x="988" y="232" width="238.7734375" height="13" transform="matrix(1 0 0 1 -62 -30)"/></g><g><g><path fill="none" stroke="none"/><text fill="#000000" stroke="none" font-family="Arial" font-size="13px" font-style="normal" font-weight="normal" text-decoration="undefined" x="1107.38671875" y="238.5" text-anchor="middle" dominant-baseline="central" transform="matrix(1 0 0 1 -62 -30)">4 : find(Ride.class, rr.ride.rideNumber)</text></g></g><g><rect fill="#ffffff" stroke="none" x="1233" y="248" width="14" height="28" transform="matrix(1 0 0 1 -62 -30)"/></g><g><path fill="none" stroke="#000000" paint-order="fill stroke markers" d=" M 1171 218 L 1185 218 L 1185 246 L 1171 246 L 1171 218 Z Z" stroke-miterlimit="10" stroke-dasharray=""/></g><g><path fill="none" stroke="#000000" paint-order="fill stroke markers" d=" M 920 269 L 1337 269" stroke-miterlimit="10" stroke-dasharray=""/></g><g><path fill="#000000" stroke="none" paint-order="stroke fill markers" d=" M 1326.837325142376 273.209517756016 L 1337 269 L 1326.837325142376 264.790482243984"/></g><g><path fill="none" stroke="#000000" paint-order="fill stroke markers" d=" M 1326.837325142376 273.209517756016 L 1337 269 L 1326.837325142376 264.790482243984 L 1326.837325142376 273.209517756016" stroke-miterlimit="10" stroke-dasharray=""/></g><g><rect fill="#ffffff" stroke="none" x="1099" y="283" width="182.45703125" height="13" transform="matrix(1 0 0 1 -62 -30)"/></g><g><g><path fill="none" stroke="none"/><text fill="#000000" stroke="none" font-family="Arial" font-size="13px" font-style="normal" font-weight="normal" text-decoration="undefined" x="1190.228515625" y="289.5" text-anchor="middle" dominant-baseline="central" transform="matrix(1 0 0 1 -62 -30)">5 : np = getRemainingPlaces()</text></g></g><g><rect fill="#ffffff" stroke="none" x="1399" y="299" width="14" height="28" transform="matrix(1 0 0 1 -62 -30)"/></g><g><path fill="none" stroke="#000000" paint-order="fill stroke markers" d=" M 1337 269 L 1351 269 L 1351 297 L 1337 297 L 1337 269 Z Z" stroke-miterlimit="10" stroke-dasharray=""/></g><g><path fill="none" stroke="#000000" paint-order="fill stroke markers" d=" M 920 386 L 1530 386" stroke-miterlimit="10" stroke-dasharray=""/></g><g><path fill="#000000" stroke="none" paint-order="stroke fill markers" d=" M 1519.837325142376 390.209517756016 L 1530 386 L 1519.837325142376 381.790482243984"/></g><g><path fill="none" stroke="#000000" paint-order="fill stroke markers" d=" M 1519.837325142376 390.209517756016 L 1530 386 L 1519.837325142376 381.790482243984 L 1519.837325142376 390.209517756016" stroke-miterlimit="10" stroke-dasharray=""/></g><g><rect fill="#ffffff" stroke="none" x="1176" y="400" width="223.84375" height="13" transform="matrix(1 0 0 1 -62 -30)"/></g><g><g><path fill="none" stroke="none"/><text fill="#000000" stroke="none" font-family="Arial" font-size="13px" font-style="normal" font-weight="normal" text-decoration="undefined" x="1287.921875" y="406.5" text-anchor="middle" dominant-baseline="central" transform="matrix(1 0 0 1 -62 -30)">6 : setReservationRequest("accepted")</text></g></g><g><rect fill="#ffffff" stroke="none" x="1592" y="416" width="14" height="28" transform="matrix(1 0 0 1 -62 -30)"/></g><g><path fill="none" stroke="#000000" paint-order="fill stroke markers" d=" M 1530 386 L 1544 386 L 1544 414 L 1530 414 L 1530 386 Z Z" stroke-miterlimit="10" stroke-dasharray=""/></g><g><path fill="none" stroke="#000000" paint-order="fill stroke markers" d=" M 920 410 L 1171 410" stroke-miterlimit="10" stroke-dasharray=""/></g><g><path fill="#000000" stroke="none" paint-order="stroke fill markers" d=" M 1160.837325142376 414.209517756016 L 1171 410 L 1160.837325142376 405.790482243984"/></g><g><path fill="none" stroke="#000000" paint-order="fill stroke markers" d=" M 1160.837325142376 414.209517756016 L 1171 410 L 1160.837325142376 405.790482243984 L 1160.837325142376 414.209517756016" stroke-miterlimit="10" stroke-dasharray=""/></g><g><rect fill="#ffffff" stroke="none" x="1068" y="424" width="78.04443359375" height="13" transform="matrix(1 0 0 1 -62 -30)"/></g><g><g><path fill="none" stroke="none"/><text fill="#000000" stroke="none" font-family="Arial" font-size="13px" font-style="normal" font-weight="normal" text-decoration="undefined" x="1107.022216796875" y="430.5" text-anchor="middle" dominant-baseline="central" transform="matrix(1 0 0 1 -62 -30)">7 : commit()</text></g></g><g><rect fill="#ffffff" stroke="none" x="1233" y="440" width="14" height="28" transform="matrix(1 0 0 1 -62 -30)"/></g><g><path fill="none" stroke="#000000" paint-order="fill stroke markers" d=" M 1171 410 L 1185 410 L 1185 438 L 1171 438 L 1171 410 Z Z" stroke-miterlimit="10" stroke-dasharray=""/></g><g><path fill="none" stroke="#000000" paint-order="fill stroke markers" d=" M 919 434 L 303 434" stroke-miterlimit="10" stroke-dasharray="3"/></g><g><path fill="none" stroke="#000000" paint-order="fill stroke markers" d=" M 313.16267485762415 429.790482243984 L 303 434 L 313.16267485762415 438.209517756016" stroke-miterlimit="10" stroke-dasharray=""/></g><g><rect fill="#ffffff" stroke="none" x="579" y="439" width="187.1669921875" height="13" transform="matrix(1 0 0 1 -62 -30)"/></g><g><g><path fill="none" stroke="none"/><text fill="#000000" stroke="none" font-family="Arial" font-size="13px" font-style="normal" font-weight="normal" text-decoration="undefined" x="672.58349609375" y="445.5" text-anchor="middle" dominant-baseline="central" transform="matrix(1 0 0 1 -62 -30)">8 : solicitud de reserva aceptada</text></g></g><g><path fill="none" stroke="#000000" paint-order="fill stroke markers" d=" M 919 505 L 303 505" stroke-miterlimit="10" stroke-dasharray="3"/></g><g><path fill="none" stroke="#000000" paint-order="fill stroke markers" d=" M 313.16267485762415 500.790482243984 L 303 505 L 313.16267485762415 509.209517756016" stroke-miterlimit="10" stroke-dasharray=""/></g><g><rect fill="#ffffff" stroke="none" x="616" y="512" width="117.7744140625" height="13" transform="matrix(1 0 0 1 -62 -30)"/></g><g><g><path fill="none" stroke="none"/><text fill="#000000" stroke="none" font-family="Arial" font-size="13px" font-style="normal" font-weight="normal" text-decoration="undefined" x="674.88720703125" y="518.5" text-anchor="middle" dominant-baseline="central" transform="matrix(1 0 0 1 -62 -30)">9 : error</text></g></g><g><path fill="none" stroke="#000000" paint-order="fill stroke markers" d=" M 874 322 L 1706 322 L 1706 530 L 874 530 L 874 322" stroke-miterlimit="10" stroke-dasharray=""/></g><g><path fill="#ffffff" stroke="none" paint-order="stroke fill markers" d=" M 874 322 L 874 345 L 1021.87255859375 345 L 1033.37255859375 333.5 L 1033.37255859375 322 L 874 322"/></g><g><path fill="none" stroke="#000000" paint-order="fill stroke markers" d=" M 874 322 L 874 345 L 1021.87255859375 345 L 1033.37255859375 333.5 L 1033.37255859375 322 L 874 322 L 874 322" stroke-miterlimit="10" stroke-dasharray=""/></g><g><g><path fill="none" stroke="none"/><text fill="#000000" stroke="none" font-family="Arial" font-size="13px" font-style="normal" font-weight="normal" text-decoration="undefined" x="1019.80126953125" y="363.5" text-anchor="middle" dominant-baseline="central" transform="matrix(1 0 0 1 -62 -30)">np - rr.numSeats &lt; 0</text></g></g><g><g><path fill="none" stroke="none"/><text fill="#000000" stroke="none" font-family="Arial" font-size="13px" font-style="normal" font-weight="bold" text-decoration="undefined" x="947.864990234375" y="363.5" text-anchor="middle" dominant-baseline="central" transform="matrix(1 0 0 1 -62 -30)">alt</text></g></g><g><g><path fill="none" stroke="none"/><text fill="#000000" stroke="none" font-family="Arial" font-size="13px" font-style="normal" font-weight="normal" text-decoration="undefined" x="975.50634765625" y="396.5" text-anchor="middle" dominant-baseline="central" transform="matrix(1 0 0 1 -62 -30)">[False]</text></g></g><g><path fill="none" stroke="#000000" paint-order="fill stroke markers" d=" M 874 458 L 1705 458" stroke-miterlimit="10" stroke-dasharray="10,3"/></g><g><g><path fill="none" stroke="none"/><text fill="#000000" stroke="none" font-family="Arial" font-size="13px" font-style="normal" font-weight="normal" text-decoration="undefined" x="972.735595703125" y="509.5" text-anchor="middle" dominant-baseline="central" transform="matrix(1 0 0 1 -62 -30)">[True]</text></g></g></g></svg>