<svg version="1.1" xmlns="http://www.w3.org/2000/svg" xmlns:xlink="http://www.w3.org/1999/xlink" width="1598.9072265625" height="451"><defs/><g><g><path fill="#ffffff" stroke="none" paint-order="stroke fill markers" d=" M 55.5245223721591 17.299999999999997 C 55.5245223721591 13.82060576 58.40292409434092 11 61.95361328125 11 C 65.50430246815908 11 68.3827041903409 13.82060576 68.3827041903409 17.299999999999997 C 68.3827041903409 20.779394239999995 65.50430246815908 23.6 61.95361328125 23.6 C 58.40292409434092 23.6 55.5245223721591 20.779394239999995 55.5245223721591 17.299999999999997 Z"/></g><g><path fill="none" stroke="#000000" paint-order="fill stroke markers" d=" M 55.5245223721591 17.299999999999997 C 55.5245223721591 13.82060576 58.40292409434092 11 61.95361328125 11 C 65.50430246815908 11 68.3827041903409 13.82060576 68.3827041903409 17.299999999999997 C 68.3827041903409 20.779394239999995 65.50430246815908 23.6 61.95361328125 23.6 C 58.40292409434092 23.6 55.5245223721591 20.779394239999995 55.5245223721591 17.299999999999997 Z" stroke-miterlimit="10" stroke-dasharray=""/></g><g><path fill="none" stroke="#000000" paint-order="fill stroke markers" d=" M 61.95361328125 23.6 L 61.95361328125 36.400000000000006" stroke-miterlimit="10" stroke-dasharray=""/></g><g><path fill="none" stroke="#000000" paint-order="fill stroke markers" d=" M 55.14634055397727 28.4 L 68.76088600852273 28.4" stroke-miterlimit="10" stroke-dasharray=""/></g><g><path fill="none" stroke="#000000" paint-order="fill stroke markers" d=" M 61.95361328125 36.400000000000006 L 52.49906782670455 49" stroke-miterlimit="10" stroke-dasharray=""/></g><g><path fill="none" stroke="#000000" paint-order="fill stroke markers" d=" M 61.95361328125 36.400000000000006 L 71.40815873579545 49" stroke-miterlimit="10" stroke-dasharray=""/></g><g><g><path fill="none" stroke="none"/><text fill="#000000" stroke="none" font-family="Arial" font-size="13px" font-style="normal" font-weight="bold" text-decoration="undefined" x="84.45361328125" y="93.5" text-anchor="middle" dominant-baseline="central" transform="matrix(1 0 0 1 -22 -30)">r: Rider</text></g></g><g><path fill="none" stroke="#000000" paint-order="fill stroke markers" d=" M 62.5 76 L 62.5 132" stroke-miterlimit="10" stroke-dasharray="3"/></g><g><rect fill="#C0C0C0" stroke="none" x="167" y="47" width="199.998046875" height="40" transform="matrix(1 0 0 1 -22 -30)" fill-opacity="0.2"/></g><g><rect fill="#ffffff" stroke="none" x="160" y="40" width="199.998046875" height="40" transform="matrix(1 0 0 1 -22 -30)"/></g><g><path fill="none" stroke="#000000" paint-order="fill stroke markers" d=" M 138 10 L 337.998046875 10 L 337.998046875 50 L 138 50 L 138 10 Z Z" stroke-miterlimit="10" stroke-dasharray=""/></g><g><g><path fill="none" stroke="none"/><text fill="#000000" stroke="none" font-family="Arial" font-size="13px" font-style="normal" font-weight="bold" text-decoration="undefined" x="260.4990234375" y="53.5" text-anchor="middle" dominant-baseline="central" transform="matrix(1 0 0 1 -22 -30)">: ReservationHistoryGUI</text></g></g><g><path fill="none" stroke="#000000" paint-order="fill stroke markers" d=" M 238.5 51 L 238.5 441" stroke-miterlimit="10" stroke-dasharray="3"/></g><g><rect fill="#C0C0C0" stroke="none" x="407" y="47" width="142.80810546875" height="40" transform="matrix(1 0 0 1 -22 -30)" fill-opacity="0.2"/></g><g><rect fill="#ffffff" stroke="none" x="400" y="40" width="142.80810546875" height="40" transform="matrix(1 0 0 1 -22 -30)"/></g><g><path fill="none" stroke="#000000" paint-order="fill stroke markers" d=" M 378 10 L 520.80810546875 10 L 520.80810546875 50 L 378 50 L 378 10 Z Z" stroke-miterlimit="10" stroke-dasharray=""/></g><g><g><path fill="none" stroke="none"/><text fill="#000000" stroke="none" font-family="Arial" font-size="13px" font-style="normal" font-weight="bold" text-decoration="undefined" x="471.904052734375" y="53.5" text-anchor="middle" dominant-baseline="central" transform="matrix(1 0 0 1 -22 -30)">: BLFacade</text></g></g><g><path fill="none" stroke="#000000" paint-order="fill stroke markers" d=" M 449.5 51 L 449.5 220" stroke-miterlimit="10" stroke-dasharray="3"/></g><g><rect fill="#C0C0C0" stroke="none" x="591" y="47" width="154.392578125" height="40" transform="matrix(1 0 0 1 -22 -30)" fill-opacity="0.2"/></g><g><rect fill="#ffffff" stroke="none" x="584" y="40" width="154.392578125" height="40" transform="matrix(1 0 0 1 -22 -30)"/></g><g><path fill="none" stroke="#000000" paint-order="fill stroke markers" d=" M 562 10 L 716.392578125 10 L 716.392578125 50 L 562 50 L 562 10 Z Z" stroke-miterlimit="10" stroke-dasharray=""/></g><g><g><path fill="none" stroke="none"/><text fill="#000000" stroke="none" font-family="Arial" font-size="13px" font-style="normal" font-weight="bold" text-decoration="undefined" x="661.6962890625" y="53.5" text-anchor="middle" dominant-baseline="central" transform="matrix(1 0 0 1 -22 -30)">: DataAccess</text></g></g><g><path fill="none" stroke="#000000" paint-order="fill stroke markers" d=" M 639.5 51 L 639.5 441" stroke-miterlimit="10" stroke-dasharray="3"/></g><g><rect fill="#C0C0C0" stroke="none" x="847" y="47" width="170.2490234375" height="40" transform="matrix(1 0 0 1 -22 -30)" fill-opacity="0.2"/></g><g><rect fill="#ffffff" stroke="none" x="840" y="40" width="170.2490234375" height="40" transform="matrix(1 0 0 1 -22 -30)"/></g><g><path fill="none" stroke="#000000" paint-order="fill stroke markers" d=" M 818 10 L 988.2490234375 10 L 988.2490234375 50 L 818 50 L 818 10 Z Z" stroke-miterlimit="10" stroke-dasharray=""/></g><g><g><path fill="none" stroke="none"/><text fill="#000000" stroke="none" font-family="Arial" font-size="13px" font-style="normal" font-weight="bold" text-decoration="undefined" x="925.62451171875" y="53.5" text-anchor="middle" dominant-baseline="central" transform="matrix(1 0 0 1 -22 -30)">: EntityManager</text></g></g><g><path fill="none" stroke="#000000" paint-order="fill stroke markers" d=" M 903.5 51 L 903.5 428" stroke-miterlimit="10" stroke-dasharray="3"/></g><g><rect fill="#C0C0C0" stroke="none" x="1063" y="47" width="206.38623046875" height="40" transform="matrix(1 0 0 1 -22 -30)" fill-opacity="0.2"/></g><g><rect fill="#ffffff" stroke="none" x="1056" y="40" width="206.38623046875" height="40" transform="matrix(1 0 0 1 -22 -30)"/></g><g><path fill="none" stroke="#000000" paint-order="fill stroke markers" d=" M 1034 10 L 1240.38623046875 10 L 1240.38623046875 50 L 1034 50 L 1034 10 Z Z" stroke-miterlimit="10" stroke-dasharray=""/></g><g><g><path fill="none" stroke="none"/><text fill="#000000" stroke="none" font-family="Arial" font-size="13px" font-style="normal" font-weight="bold" text-decoration="undefined" x="1159.693115234375" y="53.5" text-anchor="middle" dominant-baseline="central" transform="matrix(1 0 0 1 -22 -30)">: ReservationRequest</text></g></g><g><path fill="none" stroke="#000000" paint-order="fill stroke markers" d=" M 1137.5 51 L 1137.5 420" stroke-miterlimit="10" stroke-dasharray="3"/></g><g><rect fill="#C0C0C0" stroke="none" x="1327" y="47" width="108.84814453125" height="40" transform="matrix(1 0 0 1 -22 -30)" fill-opacity="0.2"/></g><g><rect fill="#ffffff" stroke="none" x="1320" y="40" width="108.84814453125" height="40" transform="matrix(1 0 0 1 -22 -30)"/></g><g><path fill="none" stroke="#000000" paint-order="fill stroke markers" d=" M 1298 10 L 1406.84814453125 10 L 1406.84814453125 50 L 1298 50 L 1298 10 Z Z" stroke-miterlimit="10" stroke-dasharray=""/></g><g><g><path fill="none" stroke="none"/><text fill="#000000" stroke="none" font-family="Arial" font-size="13px" font-style="normal" font-weight="bold" text-decoration="undefined" x="1374.924072265625" y="53.5" text-anchor="middle" dominant-baseline="central" transform="matrix(1 0 0 1 -22 -30)">: Ride</text></g></g><g><path fill="none" stroke="#000000" paint-order="fill stroke markers" d=" M 1352.5 51 L 1352.5 356" stroke-miterlimit="10" stroke-dasharray="3"/></g><g><rect fill="#C0C0C0" stroke="none" x="1503" y="47" width="113.9072265625" height="40" transform="matrix(1 0 0 1 -22 -30)" fill-opacity="0.2"/></g><g><rect fill="#ffffff" stroke="none" x="1496" y="40" width="113.9072265625" height="40" transform="matrix(1 0 0 1 -22 -30)"/></g><g><path fill="none" stroke="#000000" paint-order="fill stroke markers" d=" M 1474 10 L 1587.9072265625 10 L 1587.9072265625 50 L 1474 50 L 1474 10 Z Z" stroke-miterlimit="10" stroke-dasharray=""/></g><g><g><path fill="none" stroke="none"/><text fill="#000000" stroke="none" font-family="Arial" font-size="13px" font-style="normal" font-weight="bold" text-decoration="undefined" x="1553.45361328125" y="53.5" text-anchor="middle" dominant-baseline="central" transform="matrix(1 0 0 1 -22 -30)">: Rider</text></g></g><g><path fill="none" stroke="#000000" paint-order="fill stroke markers" d=" M 1531.5 51 L 1531.5 420" stroke-miterlimit="10" stroke-dasharray="3"/></g><g><path fill="none" stroke="#000000" paint-order="fill stroke markers" d=" M 63 106 L 231 106" stroke-miterlimit="10" stroke-dasharray=""/></g><g><path fill="#000000" stroke="none" paint-order="stroke fill markers" d=" M 220.83732514237585 110.209517756016 L 231 106 L 220.83732514237585 101.790482243984"/></g><g><path fill="none" stroke="#000000" paint-order="fill stroke markers" d=" M 220.83732514237585 110.209517756016 L 231 106 L 220.83732514237585 101.790482243984 L 220.83732514237585 110.209517756016" stroke-miterlimit="10" stroke-dasharray=""/></g><g><rect fill="#ffffff" stroke="none" x="108" y="120" width="122.83349609375" height="13" transform="matrix(1 0 0 1 -22 -30)"/></g><g><g><path fill="none" stroke="none"/><text fill="#000000" stroke="none" font-family="Arial" font-size="13px" font-style="normal" font-weight="normal" text-decoration="undefined" x="169.416748046875" y="126.5" text-anchor="middle" dominant-baseline="central" transform="matrix(1 0 0 1 -22 -30)">1 : escoge solicitud rr</text></g></g><g><rect fill="#ffffff" stroke="none" x="253" y="136" width="14" height="28" transform="matrix(1 0 0 1 -22 -30)"/></g><g><path fill="none" stroke="#000000" paint-order="fill stroke markers" d=" M 231 106 L 245 106 L 245 134 L 231 134 L 231 106 Z Z" stroke-miterlimit="10" stroke-dasharray=""/></g><g><path fill="none" stroke="#000000" paint-order="fill stroke markers" d=" M 239 138 L 442 138" stroke-miterlimit="10" stroke-dasharray=""/></g><g><path fill="#000000" stroke="none" paint-order="stroke fill markers" d=" M 431.83732514237585 142.209517756016 L 442 138 L 431.83732514237585 133.790482243984"/></g><g><path fill="none" stroke="#000000" paint-order="fill stroke markers" d=" M 431.83732514237585 142.209517756016 L 442 138 L 431.83732514237585 133.790482243984 L 431.83732514237585 142.209517756016" stroke-miterlimit="10" stroke-dasharray=""/></g><g><rect fill="#ffffff" stroke="none" x="288" y="152" width="148.09716796875" height="13" transform="matrix(1 0 0 1 -22 -30)"/></g><g><g><path fill="none" stroke="none"/><text fill="#000000" stroke="none" font-family="Arial" font-size="13px" font-style="normal" font-weight="normal" text-decoration="undefined" x="362.048583984375" y="158.5" text-anchor="middle" dominant-baseline="central" transform="matrix(1 0 0 1 -22 -30)">2 : removeReservation(rr)</text></g></g><g><rect fill="#ffffff" stroke="none" x="464" y="168" width="14" height="28" transform="matrix(1 0 0 1 -22 -30)"/></g><g><path fill="none" stroke="#000000" paint-order="fill stroke markers" d=" M 442 138 L 456 138 L 456 166 L 442 166 L 442 138 Z Z" stroke-miterlimit="10" stroke-dasharray=""/></g><g><path fill="none" stroke="#000000" paint-order="fill stroke markers" d=" M 450 178 L 632 178" stroke-miterlimit="10" stroke-dasharray=""/></g><g><path fill="#000000" stroke="none" paint-order="stroke fill markers" d=" M 621.8373251423759 182.209517756016 L 632 178 L 621.8373251423758 173.790482243984"/></g><g><path fill="none" stroke="#000000" paint-order="fill stroke markers" d=" M 621.8373251423759 182.209517756016 L 632 178 L 621.8373251423758 173.790482243984 L 621.8373251423759 182.209517756016" stroke-miterlimit="10" stroke-dasharray=""/></g><g><rect fill="#ffffff" stroke="none" x="489" y="192" width="148.09716796875" height="13" transform="matrix(1 0 0 1 -22 -30)"/></g><g><g><path fill="none" stroke="none"/><text fill="#000000" stroke="none" font-family="Arial" font-size="13px" font-style="normal" font-weight="normal" text-decoration="undefined" x="563.048583984375" y="198.5" text-anchor="middle" dominant-baseline="central" transform="matrix(1 0 0 1 -22 -30)">3 : removeReservation(rr)</text></g></g><g><rect fill="#ffffff" stroke="none" x="654" y="208" width="14" height="28" transform="matrix(1 0 0 1 -22 -30)"/></g><g><path fill="none" stroke="#000000" paint-order="fill stroke markers" d=" M 632 178 L 646 178 L 646 206 L 632 206 L 632 178 Z Z" stroke-miterlimit="10" stroke-dasharray=""/></g><g><path fill="none" stroke="#000000" paint-order="fill stroke markers" d=" M 640 210 L 896 210" stroke-miterlimit="10" stroke-dasharray=""/></g><g><path fill="#000000" stroke="none" paint-order="stroke fill markers" d=" M 885.8373251423759 214.209517756016 L 896 210 L 885.8373251423758 205.790482243984"/></g><g><path fill="none" stroke="#000000" paint-order="fill stroke markers" d=" M 885.8373251423759 214.209517756016 L 896 210 L 885.8373251423758 205.790482243984 L 885.8373251423759 214.209517756016" stroke-miterlimit="10" stroke-dasharray=""/></g><g><rect fill="#ffffff" stroke="none" x="677" y="224" width="227.59521484375" height="13" transform="matrix(1 0 0 1 -22 -30)"/></g><g><g><path fill="none" stroke="none"/><text fill="#000000" stroke="none" font-family="Arial" font-size="13px" font-style="normal" font-weight="normal" text-decoration="undefined" x="790.797607421875" y="230.5" text-anchor="middle" dominant-baseline="central" transform="matrix(1 0 0 1 -22 -30)">4 : find(ReservationRequest.class, rr.id)</text></g></g><g><rect fill="#ffffff" stroke="none" x="918" y="240" width="14" height="28" transform="matrix(1 0 0 1 -22 -30)"/></g><g><path fill="none" stroke="#000000" paint-order="fill stroke markers" d=" M 896 210 L 910 210 L 910 238 L 896 238 L 896 210 Z Z" stroke-miterlimit="10" stroke-dasharray=""/></g><g><path fill="none" stroke="#000000" paint-order="fill stroke markers" d=" M 640 274 L 1130 274" stroke-miterlimit="10" stroke-dasharray=""/></g><g><path fill="#000000" stroke="none" paint-order="stroke fill markers" d=" M 1119.837325142376 278.209517756016 L 1130 274 L 1119.837325142376 269.790482243984"/></g><g><path fill="none" stroke="#000000" paint-order="fill stroke markers" d=" M 1119.837325142376 278.209517756016 L 1130 274 L 1119.837325142376 269.790482243984 L 1119.837325142376 278.209517756016" stroke-miterlimit="10" stroke-dasharray=""/></g><g><rect fill="#ffffff" stroke="none" x="868" y="288" width="78.04443359375" height="13" transform="matrix(1 0 0 1 -22 -30)"/></g><g><g><path fill="none" stroke="none"/><text fill="#000000" stroke="none" font-family="Arial" font-size="13px" font-style="normal" font-weight="normal" text-decoration="undefined" x="907.022216796875" y="294.5" text-anchor="middle" dominant-baseline="central" transform="matrix(1 0 0 1 -22 -30)">5 : getRide()</text></g></g><g><rect fill="#ffffff" stroke="none" x="1152" y="304" width="14" height="28" transform="matrix(1 0 0 1 -22 -30)"/></g><g><path fill="none" stroke="#000000" paint-order="fill stroke markers" d=" M 1130 274 L 1144 274 L 1144 302 L 1130 302 L 1130 274 Z Z" stroke-miterlimit="10" stroke-dasharray=""/></g><g><path fill="none" stroke="#000000" paint-order="fill stroke markers" d=" M 1138 314 L 1345 314" stroke-miterlimit="10" stroke-dasharray=""/></g><g><path fill="#000000" stroke="none" paint-order="stroke fill markers" d=" M 1334.837325142376 318.209517756016 L 1345 314 L 1334.837325142376 309.790482243984"/></g><g><path fill="none" stroke="#000000" paint-order="fill stroke markers" d=" M 1334.837325142376 318.209517756016 L 1345 314 L 1334.837325142376 309.790482243984 L 1334.837325142376 318.209517756016" stroke-miterlimit="10" stroke-dasharray=""/></g><g><rect fill="#ffffff" stroke="none" x="1165" y="328" width="196.51708984375" height="13" transform="matrix(1 0 0 1 -22 -30)"/></g><g><g><path fill="none" stroke="none"/><text fill="#000000" stroke="none" font-family="Arial" font-size="13px" font-style="normal" font-weight="normal" text-decoration="undefined" x="1263.258544921875" y="334.5" text-anchor="middle" dominant-baseline="central" transform="matrix(1 0 0 1 -22 -30)">6 : removeReservationRequest(rr)</text></g></g><g><rect fill="#ffffff" stroke="none" x="1367" y="344" width="14" height="28" transform="matrix(1 0 0 1 -22 -30)"/></g><g><path fill="none" stroke="#000000" paint-order="fill stroke markers" d=" M 1345 314 L 1359 314 L 1359 342 L 1345 342 L 1345 314 Z Z" stroke-miterlimit="10" stroke-dasharray=""/></g><g><path fill="none" stroke="#000000" paint-order="fill stroke markers" d=" M 640 346 L 1130 346" stroke-miterlimit="10" stroke-dasharray=""/></g><g><path fill="#000000" stroke="none" paint-order="stroke fill markers" d=" M 1119.837325142376 350.209517756016 L 1130 346 L 1119.837325142376 341.790482243984"/></g><g><path fill="none" stroke="#000000" paint-order="fill stroke markers" d=" M 1119.837325142376 350.209517756016 L 1130 346 L 1119.837325142376 341.790482243984 L 1119.837325142376 350.209517756016" stroke-miterlimit="10" stroke-dasharray=""/></g><g><rect fill="#ffffff" stroke="none" x="868" y="360" width="78.04443359375" height="13" transform="matrix(1 0 0 1 -22 -30)"/></g><g><g><path fill="none" stroke="none"/><text fill="#000000" stroke="none" font-family="Arial" font-size="13px" font-style="normal" font-weight="normal" text-decoration="undefined" x="907.022216796875" y="366.5" text-anchor="middle" dominant-baseline="central" transform="matrix(1 0 0 1 -22 -30)">7 : getRider()</text></g></g><g><rect fill="#ffffff" stroke="none" x="1152" y="376" width="14" height="28" transform="matrix(1 0 0 1 -22 -30)"/></g><g><path fill="none" stroke="#000000" paint-order="fill stroke markers" d=" M 1130 346 L 1144 346 L 1144 374 L 1130 374 L 1130 346 Z Z" stroke-miterlimit="10" stroke-dasharray=""/></g><g><path fill="none" stroke="#000000" paint-order="fill stroke markers" d=" M 1138 378 L 1524 378" stroke-miterlimit="10" stroke-dasharray=""/></g><g><path fill="#000000" stroke="none" paint-order="stroke fill markers" d=" M 1513.837325142376 382.209517756016 L 1524 378 L 1513.837325142376 373.790482243984"/></g><g><path fill="none" stroke="#000000" paint-order="fill stroke markers" d=" M 1513.837325142376 382.209517756016 L 1524 378 L 1513.837325142376 373.790482243984 L 1513.837325142376 382.209517756016" stroke-miterlimit="10" stroke-dasharray=""/></g><g><rect fill="#ffffff" stroke="none" x="1255" y="392" width="196.51708984375" height="13" transform="matrix(1 0 0 1 -22 -30)"/></g><g><g><path fill="none" stroke="none"/><text fill="#000000" stroke="none" font-family="Arial" font-size="13px" font-style="normal" font-weight="normal" text-decoration="undefined" x="1353.258544921875" y="398.5" text-anchor="middle" dominant-baseline="central" transform="matrix(1 0 0 1 -22 -30)">8 : removeReservationRequest(rr)</text></g></g><g><rect fill="#ffffff" stroke="none" x="1546" y="408" width="14" height="28" transform="matrix(1 0 0 1 -22 -30)"/></g><g><path fill="none" stroke="#000000" paint-order="fill stroke markers" d=" M 1524 378 L 1538 378 L 1538 406 L 1524 406 L 1524 378 Z Z" stroke-miterlimit="10" stroke-dasharray=""/></g><g><path fill="none" stroke="#000000" paint-order="fill stroke markers" d=" M 640 386 L 896 386" stroke-miterlimit="10" stroke-dasharray=""/></g><g><path fill="#000000" stroke="none" paint-order="stroke fill markers" d=" M 885.8373251423759 390.209517756016 L 896 386 L 885.8373251423758 381.790482243984"/></g><g><path fill="none" stroke="#000000" paint-order="fill stroke markers" d=" M 885.8373251423759 390.209517756016 L 896 386 L 885.8373251423758 381.790482243984 L 885.8373251423759 390.209517756016" stroke-miterlimit="10" stroke-dasharray=""/></g><g><rect fill="#ffffff" stroke="none" x="751" y="400" width="78.72998046875" height="13" transform="matrix(1 0 0 1 -22 -30)"/></g><g><g><path fill="none" stroke="none"/><text fill="#000000" stroke="none" font-family="Arial" font-size="13px" font-style="normal" font-weight="normal" text-decoration="undefined" x="790.364990234375" y="406.5" text-anchor="middle" dominant-baseline="central" transform="matrix(1 0 0 1 -22 -30)">9 : remove(rr)</text></g></g><g><rect fill="#ffffff" stroke="none" x="918" y="416" width="14" height="28" transform="matrix(1 0 0 1 -22 -30)"/></g><g><path fill="none" stroke="#000000" paint-order="fill stroke markers" d=" M 896 386 L 910 386 L 910 414 L 896 414 L 896 386 Z Z" stroke-miterlimit="10" stroke-dasharray=""/></g><g><path fill="none" stroke="#000000" paint-order="fill stroke markers" d=" M 639 410 L 239 410" stroke-miterlimit="10" stroke-dasharray="3"/></g><g><path fill="none" stroke="#000000" paint-order="fill stroke markers" d=" M 249.16267485762415 405.790482243984 L 239 410 L 249.16267485762415 414.209517756016" stroke-miterlimit="10" stroke-dasharray=""/></g><g><rect fill="#ffffff" stroke="none" x="360" y="423" width="200.17333984375" height="13" transform="matrix(1 0 0 1 -22 -30)"/></g><g><g><path fill="none" stroke="none"/><text fill="#000000" stroke="none" font-family="Arial" font-size="13px" font-style="normal" font-weight="normal" text-decoration="undefined" x="460.086669921875" y="429.5" text-anchor="middle" dominant-baseline="central" transform="matrix(1 0 0 1 -22 -30)">10 : solicitud de reserva cancelada</text></g></g></g></svg>