<svg version="1.1" xmlns="http://www.w3.org/2000/svg" xmlns:xlink="http://www.w3.org/1999/xlink" width="1058.59423828125" height="648"><defs/><g><g><rect fill="#C0C0C0" stroke="none" x="263" y="391" width="272" height="15" transform="matrix(1 0 0 1 -78 -90)" fill-opacity="0.2"/></g><g><rect fill="#C0C0C0" stroke="none" x="263" y="405" width="680" height="274" transform="matrix(1 0 0 1 -78 -90)" fill-opacity="0.2"/></g><g><rect fill="#ffffff" stroke="none" x="256" y="399" width="680" height="273" transform="matrix(1 0 0 1 -78 -90)"/></g><g><path fill="none" stroke="#000000" paint-order="fill stroke markers" d=" M 178 309 L 858 309 L 858 582 L 178 582 L 178 309 Z Z" stroke-miterlimit="10" stroke-dasharray=""/></g><g><rect fill="#ffffff" stroke="none" x="256" y="384" width="272" height="15" transform="matrix(1 0 0 1 -78 -90)"/></g><g><path fill="none" stroke="#000000" paint-order="fill stroke markers" d=" M 178 294 L 450 294 L 450 309 L 178 309 L 178 294 Z Z" stroke-miterlimit="10" stroke-dasharray=""/></g><g><rect fill="#ffffff" stroke="none" x="256" y="398" width="680" height="274" transform="matrix(1 0 0 1 -78 -90)"/></g><g><path fill="none" stroke="#000000" paint-order="fill stroke markers" d=" M 178 308 L 858 308 L 858 582 L 178 582 L 178 308 Z Z" stroke-miterlimit="10" stroke-dasharray=""/></g><g><g><path fill="none" stroke="none"/><text fill="#000000" stroke="none" font-family="Arial" font-size="13px" font-style="normal" font-weight="bold" text-decoration="undefined" x="596.5" y="412.5" text-anchor="middle" dominant-baseline="central" transform="matrix(1 0 0 1 -78 -90)">domain</text></g></g><g><rect fill="#C0C0C0" stroke="none" x="279" y="471" width="240.140625" height="131" transform="matrix(1 0 0 1 -78 -90)" fill-opacity="0.2"/></g><g><rect fill="#ffffff" stroke="none" x="272" y="464" width="240.140625" height="131" transform="matrix(1 0 0 1 -78 -90)"/></g><g><path fill="none" stroke="#000000" paint-order="fill stroke markers" d=" M 194 374 L 434.140625 374 L 434.140625 505 L 194 505 L 194 374 Z Z" stroke-miterlimit="10" stroke-dasharray=""/></g><g><path fill="none" stroke="#000000" paint-order="fill stroke markers" d=" M 194 399 L 434.140625 399" stroke-miterlimit="10" stroke-dasharray=""/></g><g><path fill="none" stroke="#000000" paint-order="fill stroke markers" d=" M 194 437 L 434.140625 437" stroke-miterlimit="10" stroke-dasharray=""/></g><g><g><path fill="none" stroke="none"/><text fill="#000000" stroke="none" font-family="Arial" font-size="13px" font-style="normal" font-weight="bold" text-decoration="undefined" x="392.5703125" y="477.5" text-anchor="middle" dominant-baseline="central" transform="matrix(1 0 0 1 -78 -90)">Driver</text></g></g><g><g><path fill="none" stroke="none"/><text fill="#000000" stroke="none" font-family="Arial" font-size="13px" font-style="normal" font-weight="normal" text-decoration="undefined" x="277" y="500.5" text-anchor="start" dominant-baseline="central" transform="matrix(1 0 0 1 -78 -90)">+licensePlate</text></g></g><g><g><path fill="none" stroke="none"/><text fill="#000000" stroke="none" font-family="Arial" font-size="13px" font-style="normal" font-weight="normal" text-decoration="undefined" x="277" y="515.5" text-anchor="start" dominant-baseline="central" transform="matrix(1 0 0 1 -78 -90)">+vehicleModel</text></g></g><g><g><path fill="none" stroke="none"/><text fill="#000000" stroke="none" font-family="Arial" font-size="13px" font-style="normal" font-weight="normal" text-decoration="undefined" x="277" y="538.5" text-anchor="start" dominant-baseline="central" transform="matrix(1 0 0 1 -78 -90)">+getName()</text></g></g><g><g><path fill="none" stroke="none"/><text fill="#000000" stroke="none" font-family="Arial" font-size="13px" font-style="normal" font-weight="normal" text-decoration="undefined" x="277" y="553.5" text-anchor="start" dominant-baseline="central" transform="matrix(1 0 0 1 -78 -90)">+doesRideExist(from, to, date)</text></g></g><g><g><path fill="none" stroke="none"/><text fill="#000000" stroke="none" font-family="Arial" font-size="13px" font-style="normal" font-weight="normal" text-decoration="undefined" x="277" y="568.5" text-anchor="start" dominant-baseline="central" transform="matrix(1 0 0 1 -78 -90)">+addRide(from, to, date, nPlaces, price)</text></g></g><g><rect fill="#C0C0C0" stroke="none" x="639" y="439" width="255.29248046875" height="296" transform="matrix(1 0 0 1 -78 -90)" fill-opacity="0.2"/></g><g><rect fill="#ffffff" stroke="none" x="632" y="432" width="255.29248046875" height="296" transform="matrix(1 0 0 1 -78 -90)"/></g><g><path fill="none" stroke="#000000" paint-order="fill stroke markers" d=" M 554 342 L 809.29248046875 342 L 809.29248046875 638 L 554 638 L 554 342 Z Z" stroke-miterlimit="10" stroke-dasharray=""/></g><g><path fill="none" stroke="#000000" paint-order="fill stroke markers" d=" M 554 367 L 809.29248046875 367" stroke-miterlimit="10" stroke-dasharray=""/></g><g><path fill="none" stroke="#000000" paint-order="fill stroke markers" d=" M 554 480 L 809.29248046875 480" stroke-miterlimit="10" stroke-dasharray=""/></g><g><g><path fill="none" stroke="none"/><text fill="#000000" stroke="none" font-family="Arial" font-size="13px" font-style="normal" font-weight="bold" text-decoration="undefined" x="760.146240234375" y="445.5" text-anchor="middle" dominant-baseline="central" transform="matrix(1 0 0 1 -78 -90)">Ride</text></g></g><g><g><path fill="none" stroke="none"/><text fill="#000000" stroke="none" font-family="Arial" font-size="13px" font-style="normal" font-weight="normal" text-decoration="undefined" x="637" y="468.5" text-anchor="start" dominant-baseline="central" transform="matrix(1 0 0 1 -78 -90)">+rideNumber</text></g></g><g><g><path fill="none" stroke="none"/><text fill="#000000" stroke="none" font-family="Arial" font-size="13px" font-style="normal" font-weight="normal" text-decoration="undefined" x="637" y="483.5" text-anchor="start" dominant-baseline="central" transform="matrix(1 0 0 1 -78 -90)">+from</text></g></g><g><g><path fill="none" stroke="none"/><text fill="#000000" stroke="none" font-family="Arial" font-size="13px" font-style="normal" font-weight="normal" text-decoration="undefined" x="637" y="498.5" text-anchor="start" dominant-baseline="central" transform="matrix(1 0 0 1 -78 -90)">+to</text></g></g><g><g><path fill="none" stroke="none"/><text fill="#000000" stroke="none" font-family="Arial" font-size="13px" font-style="normal" font-weight="normal" text-decoration="undefined" x="637" y="513.5" text-anchor="start" dominant-baseline="central" transform="matrix(1 0 0 1 -78 -90)">+nPlaces</text></g></g><g><g><path fill="none" stroke="none"/><text fill="#000000" stroke="none" font-family="Arial" font-size="13px" font-style="normal" font-weight="normal" text-decoration="undefined" x="637" y="528.5" text-anchor="start" dominant-baseline="central" transform="matrix(1 0 0 1 -78 -90)">+date</text></g></g><g><g><path fill="none" stroke="none"/><text fill="#000000" stroke="none" font-family="Arial" font-size="13px" font-style="normal" font-weight="normal" text-decoration="undefined" x="637" y="543.5" text-anchor="start" dominant-baseline="central" transform="matrix(1 0 0 1 -78 -90)">+price</text></g></g><g><g><path fill="none" stroke="none"/><text fill="#000000" stroke="none" font-family="Arial" font-size="13px" font-style="normal" font-weight="normal" text-decoration="undefined" x="637" y="558.5" text-anchor="start" dominant-baseline="central" transform="matrix(1 0 0 1 -78 -90)">+maxReservations</text></g></g><g><g><path fill="none" stroke="none"/><text fill="#000000" stroke="none" font-family="Arial" font-size="13px" font-style="normal" font-weight="normal" text-decoration="undefined" x="637" y="581.5" text-anchor="start" dominant-baseline="central" transform="matrix(1 0 0 1 -78 -90)">+getnPlaces()</text></g></g><g><g><path fill="none" stroke="none"/><text fill="#000000" stroke="none" font-family="Arial" font-size="13px" font-style="normal" font-weight="normal" text-decoration="undefined" x="637" y="596.5" text-anchor="start" dominant-baseline="central" transform="matrix(1 0 0 1 -78 -90)">+getPrice()</text></g></g><g><g><path fill="none" stroke="none"/><text fill="#000000" stroke="none" font-family="Arial" font-size="13px" font-style="normal" font-weight="normal" text-decoration="undefined" x="637" y="611.5" text-anchor="start" dominant-baseline="central" transform="matrix(1 0 0 1 -78 -90)">+getDriver()</text></g></g><g><g><path fill="none" stroke="none"/><text fill="#000000" stroke="none" font-family="Arial" font-size="13px" font-style="normal" font-weight="normal" text-decoration="undefined" x="637" y="626.5" text-anchor="start" dominant-baseline="central" transform="matrix(1 0 0 1 -78 -90)">+new(from, to, date, nPlaces, price, driver)</text></g></g><g><g><path fill="none" stroke="none"/><text fill="#000000" stroke="none" font-family="Arial" font-size="13px" font-style="normal" font-weight="normal" text-decoration="undefined" x="637" y="641.5" text-anchor="start" dominant-baseline="central" transform="matrix(1 0 0 1 -78 -90)">+addReservationRequest()</text></g></g><g><g><path fill="none" stroke="none"/><text fill="#000000" stroke="none" font-family="Arial" font-size="13px" font-style="normal" font-weight="normal" text-decoration="undefined" x="637" y="656.5" text-anchor="start" dominant-baseline="central" transform="matrix(1 0 0 1 -78 -90)">+addReservationRequest()</text></g></g><g><g><path fill="none" stroke="none"/><text fill="#000000" stroke="none" font-family="Arial" font-size="13px" font-style="normal" font-weight="normal" text-decoration="undefined" x="637" y="671.5" text-anchor="start" dominant-baseline="central" transform="matrix(1 0 0 1 -78 -90)">+getRemainingPlaces()</text></g></g><g><g><path fill="none" stroke="none"/><text fill="#000000" stroke="none" font-family="Arial" font-size="13px" font-style="normal" font-weight="normal" text-decoration="undefined" x="637" y="686.5" text-anchor="start" dominant-baseline="central" transform="matrix(1 0 0 1 -78 -90)">+getRemainingPlaces()</text></g></g><g><g><path fill="none" stroke="none"/><text fill="#000000" stroke="none" font-family="Arial" font-size="13px" font-style="normal" font-weight="normal" text-decoration="undefined" x="637" y="701.5" text-anchor="start" dominant-baseline="central" transform="matrix(1 0 0 1 -78 -90)">+getRemainingPlaces()</text></g></g><g><g><path fill="none" stroke="none"/><text fill="#000000" stroke="none" font-family="Arial" font-size="13px" font-style="normal" font-weight="normal" text-decoration="undefined" x="637" y="716.5" text-anchor="start" dominant-baseline="central" transform="matrix(1 0 0 1 -78 -90)">+removeReservationRequest()</text></g></g><g><rect fill="#C0C0C0" stroke="none" x="431" y="135" width="293.59423828125" height="163" transform="matrix(1 0 0 1 -78 -90)" fill-opacity="0.2"/></g><g><rect fill="#ffffff" stroke="none" x="424" y="128" width="293.59423828125" height="163" transform="matrix(1 0 0 1 -78 -90)"/></g><g><path fill="none" stroke="#000000" paint-order="fill stroke markers" d=" M 346 38 L 639.59423828125 38 L 639.59423828125 201 L 346 201 L 346 38 Z Z" stroke-miterlimit="10" stroke-dasharray=""/></g><g><path fill="none" stroke="#000000" paint-order="fill stroke markers" d=" M 346 63 L 639.59423828125 63" stroke-miterlimit="10" stroke-dasharray=""/></g><g><path fill="none" stroke="#000000" paint-order="fill stroke markers" d=" M 346 73 L 639.59423828125 73" stroke-miterlimit="10" stroke-dasharray=""/></g><g><g><path fill="none" stroke="none"/><text fill="#000000" stroke="none" font-family="Arial" font-size="13px" font-style="normal" font-weight="bold" text-decoration="undefined" x="571.297119140625" y="141.5" text-anchor="middle" dominant-baseline="central" transform="matrix(1 0 0 1 -78 -90)">BLFacade</text></g></g><g><g><path fill="none" stroke="none"/><text fill="#000000" stroke="none" font-family="Arial" font-size="13px" font-style="normal" font-weight="normal" text-decoration="undefined" x="429" y="174.5" text-anchor="start" dominant-baseline="central" transform="matrix(1 0 0 1 -78 -90)">+getDepartCities()</text></g></g><g><g><path fill="none" stroke="none"/><text fill="#000000" stroke="none" font-family="Arial" font-size="13px" font-style="normal" font-weight="normal" text-decoration="undefined" x="429" y="189.5" text-anchor="start" dominant-baseline="central" transform="matrix(1 0 0 1 -78 -90)">+getArrivalCities(city)</text></g></g><g><g><path fill="none" stroke="none"/><text fill="#000000" stroke="none" font-family="Arial" font-size="13px" font-style="normal" font-weight="normal" text-decoration="undefined" x="429" y="204.5" text-anchor="start" dominant-baseline="central" transform="matrix(1 0 0 1 -78 -90)">+getThisMonthDaysWithRides(from, to, today)</text></g></g><g><g><path fill="none" stroke="none"/><text fill="#000000" stroke="none" font-family="Arial" font-size="13px" font-style="normal" font-weight="normal" text-decoration="undefined" x="429" y="219.5" text-anchor="start" dominant-baseline="central" transform="matrix(1 0 0 1 -78 -90)">+getRides(from, to, date)</text></g></g><g><g><path fill="none" stroke="none"/><text fill="#000000" stroke="none" font-family="Arial" font-size="13px" font-style="normal" font-weight="normal" text-decoration="undefined" x="429" y="234.5" text-anchor="start" dominant-baseline="central" transform="matrix(1 0 0 1 -78 -90)">+createRide(driver, from, to, date, nPlaces, price)</text></g></g><g><g><path fill="none" stroke="none"/><text fill="#000000" stroke="none" font-family="Arial" font-size="13px" font-style="normal" font-weight="normal" text-decoration="undefined" x="429" y="249.5" text-anchor="start" dominant-baseline="central" transform="matrix(1 0 0 1 -78 -90)">+makeReservationRequest()</text></g></g><g><g><path fill="none" stroke="none"/><text fill="#000000" stroke="none" font-family="Arial" font-size="13px" font-style="normal" font-weight="normal" text-decoration="undefined" x="429" y="264.5" text-anchor="start" dominant-baseline="central" transform="matrix(1 0 0 1 -78 -90)">+modifyReservationRequestState()</text></g></g><g><g><path fill="none" stroke="none"/><text fill="#000000" stroke="none" font-family="Arial" font-size="13px" font-style="normal" font-weight="normal" text-decoration="undefined" x="429" y="279.5" text-anchor="start" dominant-baseline="central" transform="matrix(1 0 0 1 -78 -90)">+removeReservation()</text></g></g><g><rect fill="#C0C0C0" stroke="none" x="839" y="135" width="293.59423828125" height="163" transform="matrix(1 0 0 1 -78 -90)" fill-opacity="0.2"/></g><g><rect fill="#ffffff" stroke="none" x="832" y="128" width="293.59423828125" height="163" transform="matrix(1 0 0 1 -78 -90)"/></g><g><path fill="none" stroke="#000000" paint-order="fill stroke markers" d=" M 754 38 L 1047.59423828125 38 L 1047.59423828125 201 L 754 201 L 754 38 Z Z" stroke-miterlimit="10" stroke-dasharray=""/></g><g><path fill="none" stroke="#000000" paint-order="fill stroke markers" d=" M 754 63 L 1047.59423828125 63" stroke-miterlimit="10" stroke-dasharray=""/></g><g><path fill="none" stroke="#000000" paint-order="fill stroke markers" d=" M 754 73 L 1047.59423828125 73" stroke-miterlimit="10" stroke-dasharray=""/></g><g><g><path fill="none" stroke="none"/><text fill="#000000" stroke="none" font-family="Arial" font-size="13px" font-style="normal" font-weight="bold" text-decoration="undefined" x="979.297119140625" y="141.5" text-anchor="middle" dominant-baseline="central" transform="matrix(1 0 0 1 -78 -90)">DataAccess</text></g></g><g><g><path fill="none" stroke="none"/><text fill="#000000" stroke="none" font-family="Arial" font-size="13px" font-style="normal" font-weight="normal" text-decoration="undefined" x="837" y="174.5" text-anchor="start" dominant-baseline="central" transform="matrix(1 0 0 1 -78 -90)">+getDepartCities()</text></g></g><g><g><path fill="none" stroke="none"/><text fill="#000000" stroke="none" font-family="Arial" font-size="13px" font-style="normal" font-weight="normal" text-decoration="undefined" x="837" y="189.5" text-anchor="start" dominant-baseline="central" transform="matrix(1 0 0 1 -78 -90)">+getArrivalCities(city)</text></g></g><g><g><path fill="none" stroke="none"/><text fill="#000000" stroke="none" font-family="Arial" font-size="13px" font-style="normal" font-weight="normal" text-decoration="undefined" x="837" y="204.5" text-anchor="start" dominant-baseline="central" transform="matrix(1 0 0 1 -78 -90)">+getThisMonthDaysWithRides(from, to, day)</text></g></g><g><g><path fill="none" stroke="none"/><text fill="#000000" stroke="none" font-family="Arial" font-size="13px" font-style="normal" font-weight="normal" text-decoration="undefined" x="837" y="219.5" text-anchor="start" dominant-baseline="central" transform="matrix(1 0 0 1 -78 -90)">+getRides(from, to, date)</text></g></g><g><g><path fill="none" stroke="none"/><text fill="#000000" stroke="none" font-family="Arial" font-size="13px" font-style="normal" font-weight="normal" text-decoration="undefined" x="837" y="234.5" text-anchor="start" dominant-baseline="central" transform="matrix(1 0 0 1 -78 -90)">+createRide(driver, from, to, date, nPlaces, price)</text></g></g><g><g><path fill="none" stroke="none"/><text fill="#000000" stroke="none" font-family="Arial" font-size="13px" font-style="normal" font-weight="normal" text-decoration="undefined" x="837" y="249.5" text-anchor="start" dominant-baseline="central" transform="matrix(1 0 0 1 -78 -90)">+addReservationRequest()</text></g></g><g><g><path fill="none" stroke="none"/><text fill="#000000" stroke="none" font-family="Arial" font-size="13px" font-style="normal" font-weight="normal" text-decoration="undefined" x="837" y="264.5" text-anchor="start" dominant-baseline="central" transform="matrix(1 0 0 1 -78 -90)">+modifyReservationRequest()</text></g></g><g><g><path fill="none" stroke="none"/><text fill="#000000" stroke="none" font-family="Arial" font-size="13px" font-style="normal" font-weight="normal" text-decoration="undefined" x="837" y="279.5" text-anchor="start" dominant-baseline="central" transform="matrix(1 0 0 1 -78 -90)">+removeReservation()</text></g></g><g><rect fill="#C0C0C0" stroke="none" x="97" y="107" width="129.1962890625" height="60" transform="matrix(1 0 0 1 -78 -90)" fill-opacity="0.2"/></g><g><rect fill="#ffffff" stroke="none" x="90" y="100" width="129.1962890625" height="60" transform="matrix(1 0 0 1 -78 -90)"/></g><g><path fill="none" stroke="#000000" paint-order="fill stroke markers" d=" M 12 10 L 141.1962890625 10 L 141.1962890625 70 L 12 70 L 12 10 Z Z" stroke-miterlimit="10" stroke-dasharray=""/></g><g><path fill="none" stroke="#000000" paint-order="fill stroke markers" d=" M 12 35 L 141.1962890625 35" stroke-miterlimit="10" stroke-dasharray=""/></g><g><path fill="none" stroke="#000000" paint-order="fill stroke markers" d=" M 12 45 L 141.1962890625 45" stroke-miterlimit="10" stroke-dasharray=""/></g><g><g><path fill="none" stroke="none"/><text fill="#000000" stroke="none" font-family="Arial" font-size="13px" font-style="normal" font-weight="bold" text-decoration="undefined" x="155.09814453125" y="113.5" text-anchor="middle" dominant-baseline="central" transform="matrix(1 0 0 1 -78 -90)">FindRidesGUI</text></g></g><g><g><path fill="none" stroke="none"/><text fill="#000000" stroke="none" font-family="Arial" font-size="13px" font-style="normal" font-weight="normal" text-decoration="undefined" x="95" y="146.5" text-anchor="start" dominant-baseline="central" transform="matrix(1 0 0 1 -78 -90)">+new()</text></g></g><g><rect fill="#C0C0C0" stroke="none" x="95" y="215" width="129.1962890625" height="73" transform="matrix(1 0 0 1 -78 -90)" fill-opacity="0.2"/></g><g><rect fill="#ffffff" stroke="none" x="88" y="208" width="129.1962890625" height="73" transform="matrix(1 0 0 1 -78 -90)"/></g><g><path fill="none" stroke="#000000" paint-order="fill stroke markers" d=" M 10 118 L 139.1962890625 118 L 139.1962890625 191 L 10 191 L 10 118 Z Z" stroke-miterlimit="10" stroke-dasharray=""/></g><g><path fill="none" stroke="#000000" paint-order="fill stroke markers" d=" M 10 143 L 139.1962890625 143" stroke-miterlimit="10" stroke-dasharray=""/></g><g><path fill="none" stroke="#000000" paint-order="fill stroke markers" d=" M 10 153 L 139.1962890625 153" stroke-miterlimit="10" stroke-dasharray=""/></g><g><g><path fill="none" stroke="none"/><text fill="#000000" stroke="none" font-family="Arial" font-size="13px" font-style="normal" font-weight="bold" text-decoration="undefined" x="153.09814453125" y="221.5" text-anchor="middle" dominant-baseline="central" transform="matrix(1 0 0 1 -78 -90)">CreateRideGUI</text></g></g><g><g><path fill="none" stroke="none"/><text fill="#000000" stroke="none" font-family="Arial" font-size="13px" font-style="normal" font-weight="normal" text-decoration="undefined" x="93" y="254.5" text-anchor="start" dominant-baseline="central" transform="matrix(1 0 0 1 -78 -90)">+fieldErrors()</text></g></g></g></svg>