<svg version="1.1" xmlns="http://www.w3.org/2000/svg" xmlns:xlink="http://www.w3.org/1999/xlink" width="1066" height="663"><defs/><g><g><path fill="#ffffff" stroke="none" paint-order="stroke fill markers" d=" M 194.74862304687503 523.85 C 194.74862304687503 518.96227952 198.706425414875 515 203.588623046875 515 C 208.470820678875 515 212.42862304687497 518.96227952 212.42862304687497 523.85 C 212.42862304687497 528.73772048 208.470820678875 532.7 203.588623046875 532.7 C 198.706425414875 532.7 194.74862304687503 528.73772048 194.74862304687503 523.85 Z"/></g><g><path fill="none" stroke="#000000" paint-order="fill stroke markers" d=" M 194.74862304687503 523.85 C 194.74862304687503 518.96227952 198.706425414875 515 203.588623046875 515 C 208.470820678875 515 212.42862304687497 518.96227952 212.42862304687497 523.85 C 212.42862304687497 528.73772048 208.470820678875 532.7 203.588623046875 532.7 C 198.706425414875 532.7 194.74862304687503 528.73772048 194.74862304687503 523.85 Z" stroke-miterlimit="10" stroke-dasharray=""/></g><g><path fill="none" stroke="#000000" paint-order="fill stroke markers" d=" M 203.588623046875 532.7 L 203.588623046875 550.3" stroke-miterlimit="10" stroke-dasharray=""/></g><g><path fill="none" stroke="#000000" paint-order="fill stroke markers" d=" M 194.228623046875 539.3 L 212.948623046875 539.3" stroke-miterlimit="10" stroke-dasharray=""/></g><g><path fill="none" stroke="#000000" paint-order="fill stroke markers" d=" M 203.588623046875 550.3 L 190.588623046875 568" stroke-miterlimit="10" stroke-dasharray=""/></g><g><path fill="none" stroke="#000000" paint-order="fill stroke markers" d=" M 203.588623046875 550.3 L 216.588623046875 568" stroke-miterlimit="10" stroke-dasharray=""/></g><g><g><path fill="none" stroke="none"/><text fill="#000000" stroke="none" font-family="Arial" font-size="13px" font-style="normal" font-weight="bold" text-decoration="undefined" x="346.088623046875" y="604.5" text-anchor="middle" dominant-baseline="central" transform="matrix(1 0 0 1 -142 -22)">Driver</text></g></g><g><path fill="#C0C0C0" stroke="none" paint-order="stroke fill markers" d=" M 321 466.5 C 321 456.835016 346.9674816 449 379 449 C 411.03251839999996 449 437 456.835016 437 466.5 C 437 476.164984 411.03251839999996 484 379 484 C 346.9674816 484 321 476.164984 321 466.5 Z" fill-opacity="0.2"/></g><g><path fill="#ffffff" stroke="none" paint-order="stroke fill markers" d=" M 314 459.5 C 314 449.835016 339.9674816 442 372 442 C 404.03251839999996 442 430 449.835016 430 459.5 C 430 469.164984 404.03251839999996 477 372 477 C 339.9674816 477 314 469.164984 314 459.5 Z"/></g><g><path fill="none" stroke="#000000" paint-order="fill stroke markers" d=" M 314 459.5 C 314 449.835016 339.9674816 442 372 442 C 404.03251839999996 442 430 449.835016 430 459.5 C 430 469.164984 404.03251839999996 477 372 477 C 339.9674816 477 314 469.164984 314 459.5 Z" stroke-miterlimit="10" stroke-dasharray=""/></g><g><g><path fill="none" stroke="none"/><text fill="#000000" stroke="none" font-family="Arial" font-size="13px" font-style="normal" font-weight="bold" text-decoration="undefined" x="514" y="482.5" text-anchor="middle" dominant-baseline="central" transform="matrix(1 0 0 1 -142 -22)">Create Ride</text></g></g><g><path fill="#C0C0C0" stroke="none" paint-order="stroke fill markers" d=" M 345 114.5 C 345 104.835016 372.3106272 97 406 97 C 439.6893728 97 467 104.835016 467 114.5 C 467 124.164984 439.6893728 132 406 132 C 372.3106272 132 345 124.164984 345 114.5 Z" fill-opacity="0.2"/></g><g><path fill="#ffffff" stroke="none" paint-order="stroke fill markers" d=" M 338 107.5 C 338 97.835016 365.3106272 90 399 90 C 432.6893728 90 460 97.835016 460 107.5 C 460 117.164984 432.6893728 125 399 125 C 365.3106272 125 338 117.164984 338 107.5 Z"/></g><g><path fill="none" stroke="#000000" paint-order="fill stroke markers" d=" M 338 107.5 C 338 97.835016 365.3106272 90 399 90 C 432.6893728 90 460 97.835016 460 107.5 C 460 117.164984 432.6893728 125 399 125 C 365.3106272 125 338 117.164984 338 107.5 Z" stroke-miterlimit="10" stroke-dasharray=""/></g><g><g><path fill="none" stroke="none"/><text fill="#000000" stroke="none" font-family="Arial" font-size="13px" font-style="normal" font-weight="bold" text-decoration="undefined" x="541" y="130.5" text-anchor="middle" dominant-baseline="central" transform="matrix(1 0 0 1 -142 -22)">Query Rides</text></g></g><g><path fill="#ffffff" stroke="none" paint-order="stroke fill markers" d=" M 196.61361328125003 67.85 C 196.61361328125003 62.962279519999996 200.57141564925 59 205.45361328125 59 C 210.33581091325 59 214.29361328124997 62.962279519999996 214.29361328124997 67.85 C 214.29361328124997 72.73772048 210.33581091325 76.7 205.45361328125 76.7 C 200.57141564925 76.7 196.61361328125003 72.73772048 196.61361328125003 67.85 Z"/></g><g><path fill="none" stroke="#000000" paint-order="fill stroke markers" d=" M 196.61361328125003 67.85 C 196.61361328125003 62.962279519999996 200.57141564925 59 205.45361328125 59 C 210.33581091325 59 214.29361328124997 62.962279519999996 214.29361328124997 67.85 C 214.29361328124997 72.73772048 210.33581091325 76.7 205.45361328125 76.7 C 200.57141564925 76.7 196.61361328125003 72.73772048 196.61361328125003 67.85 Z" stroke-miterlimit="10" stroke-dasharray=""/></g><g><path fill="none" stroke="#000000" paint-order="fill stroke markers" d=" M 205.45361328125 76.7 L 205.45361328125 94.3" stroke-miterlimit="10" stroke-dasharray=""/></g><g><path fill="none" stroke="#000000" paint-order="fill stroke markers" d=" M 196.09361328125 83.3 L 214.81361328125 83.3" stroke-miterlimit="10" stroke-dasharray=""/></g><g><path fill="none" stroke="#000000" paint-order="fill stroke markers" d=" M 205.45361328125 94.3 L 192.45361328125 112" stroke-miterlimit="10" stroke-dasharray=""/></g><g><path fill="none" stroke="#000000" paint-order="fill stroke markers" d=" M 205.45361328125 94.3 L 218.45361328125 112" stroke-miterlimit="10" stroke-dasharray=""/></g><g><g><path fill="none" stroke="none"/><text fill="#000000" stroke="none" font-family="Arial" font-size="13px" font-style="normal" font-weight="bold" text-decoration="undefined" x="347.95361328125" y="148.5" text-anchor="middle" dominant-baseline="central" transform="matrix(1 0 0 1 -142 -22)">User</text></g></g><g><path fill="#C0C0C0" stroke="none" paint-order="stroke fill markers" d=" M 377 74.5 C 377 64.835016 392.670032 57 412 57 C 431.329968 57 447 64.835016 447 74.5 C 447 84.164984 431.329968 92 412 92 C 392.670032 92 377 84.164984 377 74.5 Z" fill-opacity="0.2"/></g><g><path fill="#ffffff" stroke="none" paint-order="stroke fill markers" d=" M 370 67.5 C 370 57.835015999999996 385.670032 50 405 50 C 424.329968 50 440 57.835015999999996 440 67.5 C 440 77.164984 424.329968 85 405 85 C 385.670032 85 370 77.164984 370 67.5 Z"/></g><g><path fill="none" stroke="#000000" paint-order="fill stroke markers" d=" M 370 67.5 C 370 57.835015999999996 385.670032 50 405 50 C 424.329968 50 440 57.835015999999996 440 67.5 C 440 77.164984 424.329968 85 405 85 C 385.670032 85 370 77.164984 370 67.5 Z" stroke-miterlimit="10" stroke-dasharray=""/></g><g><g><path fill="none" stroke="none"/><text fill="#000000" stroke="none" font-family="Arial" font-size="13px" font-style="normal" font-weight="bold" text-decoration="undefined" x="547" y="90.5" text-anchor="middle" dominant-baseline="central" transform="matrix(1 0 0 1 -142 -22)">Login</text></g></g><g><path fill="none" stroke="#000000" paint-order="fill stroke markers" d=" M 226 99 L 337 104" stroke-miterlimit="10" stroke-dasharray=""/></g><g><path fill="none" stroke="#000000" paint-order="fill stroke markers" d=" M 226 95 L 369 73" stroke-miterlimit="10" stroke-dasharray=""/></g><g><path fill="#C0C0C0" stroke="none" paint-order="stroke fill markers" d=" M 361 34.5 C 361 24.835015999999996 383.83347519999995 17 412 17 C 440.16652480000005 17 463 24.835015999999996 463 34.5 C 463 44.164984000000004 440.16652480000005 52 412 52 C 383.83347519999995 52 361 44.164984000000004 361 34.5 Z" fill-opacity="0.2"/></g><g><path fill="#ffffff" stroke="none" paint-order="stroke fill markers" d=" M 354 27.5 C 354 17.835015999999996 376.83347519999995 10 405 10 C 433.16652480000005 10 456 17.835015999999996 456 27.5 C 456 37.164984000000004 433.16652480000005 45 405 45 C 376.83347519999995 45 354 37.164984000000004 354 27.5 Z"/></g><g><path fill="none" stroke="#000000" paint-order="fill stroke markers" d=" M 354 27.5 C 354 17.835015999999996 376.83347519999995 10 405 10 C 433.16652480000005 10 456 17.835015999999996 456 27.5 C 456 37.164984000000004 433.16652480000005 45 405 45 C 376.83347519999995 45 354 37.164984000000004 354 27.5 Z" stroke-miterlimit="10" stroke-dasharray=""/></g><g><g><path fill="none" stroke="none"/><text fill="#000000" stroke="none" font-family="Arial" font-size="13px" font-style="normal" font-weight="bold" text-decoration="undefined" x="547" y="50.5" text-anchor="middle" dominant-baseline="central" transform="matrix(1 0 0 1 -142 -22)">Register</text></g></g><g><path fill="none" stroke="#000000" paint-order="fill stroke markers" d=" M 226 91 L 353 45" stroke-miterlimit="10" stroke-dasharray=""/></g><g><path fill="#ffffff" stroke="none" paint-order="stroke fill markers" d=" M 194.74862304687503 275.85 C 194.74862304687503 270.96227952000004 198.706425414875 267 203.588623046875 267 C 208.470820678875 267 212.42862304687497 270.96227952000004 212.42862304687497 275.85 C 212.42862304687497 280.73772048 208.470820678875 284.7 203.588623046875 284.7 C 198.706425414875 284.7 194.74862304687503 280.73772048 194.74862304687503 275.85 Z"/></g><g><path fill="none" stroke="#000000" paint-order="fill stroke markers" d=" M 194.74862304687503 275.85 C 194.74862304687503 270.96227952000004 198.706425414875 267 203.588623046875 267 C 208.470820678875 267 212.42862304687497 270.96227952000004 212.42862304687497 275.85 C 212.42862304687497 280.73772048 208.470820678875 284.7 203.588623046875 284.7 C 198.706425414875 284.7 194.74862304687503 280.73772048 194.74862304687503 275.85 Z" stroke-miterlimit="10" stroke-dasharray=""/></g><g><path fill="none" stroke="#000000" paint-order="fill stroke markers" d=" M 203.588623046875 284.7 L 203.588623046875 302.3" stroke-miterlimit="10" stroke-dasharray=""/></g><g><path fill="none" stroke="#000000" paint-order="fill stroke markers" d=" M 194.228623046875 291.3 L 212.948623046875 291.3" stroke-miterlimit="10" stroke-dasharray=""/></g><g><path fill="none" stroke="#000000" paint-order="fill stroke markers" d=" M 203.588623046875 302.3 L 190.588623046875 320" stroke-miterlimit="10" stroke-dasharray=""/></g><g><path fill="none" stroke="#000000" paint-order="fill stroke markers" d=" M 203.588623046875 302.3 L 216.588623046875 320" stroke-miterlimit="10" stroke-dasharray=""/></g><g><g><path fill="none" stroke="none"/><text fill="#000000" stroke="none" font-family="Arial" font-size="13px" font-style="normal" font-weight="bold" text-decoration="undefined" x="346.088623046875" y="356.5" text-anchor="middle" dominant-baseline="central" transform="matrix(1 0 0 1 -142 -22)">Rider</text></g></g><g><path fill="none" stroke="#000000" paint-order="fill stroke markers" d=" M 230 539 L 338 478" stroke-miterlimit="10" stroke-dasharray=""/></g><g><path fill="#C0C0C0" stroke="none" paint-order="stroke fill markers" d=" M 345 186.5 C 345 176.835016 374.3253456 169 410.5 169 C 446.6746544 169 476 176.835016 476 186.5 C 476 196.164984 446.6746544 204 410.5 204 C 374.3253456 204 345 196.164984 345 186.5 Z" fill-opacity="0.2"/></g><g><path fill="#ffffff" stroke="none" paint-order="stroke fill markers" d=" M 338 179.5 C 338 169.835016 367.3253456 162 403.5 162 C 439.6746544 162 469 169.835016 469 179.5 C 469 189.164984 439.6746544 197 403.5 197 C 367.3253456 197 338 189.164984 338 179.5 Z"/></g><g><path fill="none" stroke="#000000" paint-order="fill stroke markers" d=" M 338 179.5 C 338 169.835016 367.3253456 162 403.5 162 C 439.6746544 162 469 169.835016 469 179.5 C 469 189.164984 439.6746544 197 403.5 197 C 367.3253456 197 338 189.164984 338 179.5 Z" stroke-miterlimit="10" stroke-dasharray=""/></g><g><g><path fill="none" stroke="none"/><text fill="#000000" stroke="none" font-family="Arial" font-size="13px" font-style="normal" font-weight="bold" text-decoration="undefined" x="545.5" y="202.5" text-anchor="middle" dominant-baseline="central" transform="matrix(1 0 0 1 -142 -22)">Request Ride</text></g></g><g><path fill="none" stroke="#000000" paint-order="fill stroke markers" d=" M 230 289 L 373 198" stroke-miterlimit="10" stroke-dasharray=""/></g><g><path fill="none" stroke="#000000" paint-order="fill stroke markers" d=" M 203 513 L 203 347" stroke-miterlimit="10" stroke-dasharray=""/></g><g><path fill="#FFFFFF" stroke="none" paint-order="stroke fill markers" d=" M 211.419035512032 367.3253497152483 L 203 347 L 194.580964487968 367.3253497152483"/></g><g><path fill="none" stroke="#000000" paint-order="fill stroke markers" d=" M 211.419035512032 367.3253497152483 L 203 347 L 194.580964487968 367.3253497152483 L 211.419035512032 367.3253497152483" stroke-miterlimit="10" stroke-dasharray=""/></g><g><path fill="none" stroke="#000000" paint-order="fill stroke markers" d=" M 203 265 L 205 139" stroke-miterlimit="10" stroke-dasharray=""/></g><g><path fill="#FFFFFF" stroke="none" paint-order="stroke fill markers" d=" M 213.0953911500489 159.45640833889738 L 205 139 L 196.25944092340177 159.1891710337125"/></g><g><path fill="none" stroke="#000000" paint-order="fill stroke markers" d=" M 213.0953911500489 159.45640833889738 L 205 139 L 196.25944092340177 159.1891710337125 L 213.0953911500489 159.45640833889738" stroke-miterlimit="10" stroke-dasharray=""/></g><g><path fill="#C0C0C0" stroke="none" paint-order="stroke fill markers" d=" M 17 306.5 C 17 296.835016 39.83347520000001 289 68 289 C 96.16652479999999 289 119 296.835016 119 306.5 C 119 316.164984 96.16652479999999 324 68 324 C 39.83347520000001 324 17 316.164984 17 306.5 Z" fill-opacity="0.2"/></g><g><path fill="#ffffff" stroke="none" paint-order="stroke fill markers" d=" M 10 299.5 C 10 289.835016 32.83347520000001 282 61 282 C 89.16652479999999 282 112 289.835016 112 299.5 C 112 309.164984 89.16652479999999 317 61 317 C 32.83347520000001 317 10 309.164984 10 299.5 Z"/></g><g><path fill="none" stroke="#000000" paint-order="fill stroke markers" d=" M 10 299.5 C 10 289.835016 32.83347520000001 282 61 282 C 89.16652479999999 282 112 289.835016 112 299.5 C 112 309.164984 89.16652479999999 317 61 317 C 32.83347520000001 317 10 309.164984 10 299.5 Z" stroke-miterlimit="10" stroke-dasharray=""/></g><g><g><path fill="none" stroke="none"/><text fill="#000000" stroke="none" font-family="Arial" font-size="13px" font-style="normal" font-weight="bold" text-decoration="undefined" x="203" y="322.5" text-anchor="middle" dominant-baseline="central" transform="matrix(1 0 0 1 -142 -22)">Log out</text></g></g><g><path fill="none" stroke="#000000" paint-order="fill stroke markers" d=" M 177 305 L 113 302" stroke-miterlimit="10" stroke-dasharray=""/></g><g><path fill="#C0C0C0" stroke="none" paint-order="stroke fill markers" d=" M 609 474.5 C 609 464.835016 638.101488 457 674 457 C 709.898512 457 739 464.835016 739 474.5 C 739 484.164984 709.898512 492 674 492 C 638.101488 492 609 484.164984 609 474.5 Z" fill-opacity="0.2"/></g><g><path fill="#ffffff" stroke="none" paint-order="stroke fill markers" d=" M 602 467.5 C 602 457.835016 631.101488 450 667 450 C 702.898512 450 732 457.835016 732 467.5 C 732 477.164984 702.898512 485 667 485 C 631.101488 485 602 477.164984 602 467.5 Z"/></g><g><path fill="none" stroke="#000000" paint-order="fill stroke markers" d=" M 602 467.5 C 602 457.835016 631.101488 450 667 450 C 702.898512 450 732 457.835016 732 467.5 C 732 477.164984 702.898512 485 667 485 C 631.101488 485 602 477.164984 602 467.5 Z" stroke-miterlimit="10" stroke-dasharray=""/></g><g><g><path fill="none" stroke="none"/><text fill="#000000" stroke="none" font-family="Arial" font-size="13px" font-style="normal" font-weight="bold" text-decoration="undefined" x="809" y="490.5" text-anchor="middle" dominant-baseline="central" transform="matrix(1 0 0 1 -142 -22)">Remove Ride</text></g></g><g><path fill="#C0C0C0" stroke="none" paint-order="stroke fill markers" d=" M 801 314.5 C 801 304.835016 859.6506912 297 932 297 C 1004.3493088 297 1063 304.835016 1063 314.5 C 1063 324.164984 1004.3493088 332 932 332 C 859.6506912 332 801 324.164984 801 314.5 Z" fill-opacity="0.2"/></g><g><path fill="#ffffff" stroke="none" paint-order="stroke fill markers" d=" M 794 307.5 C 794 297.835016 852.6506912 290 925 290 C 997.3493088 290 1056 297.835016 1056 307.5 C 1056 317.164984 997.3493088 325 925 325 C 852.6506912 325 794 317.164984 794 307.5 Z"/></g><g><path fill="none" stroke="#000000" paint-order="fill stroke markers" d=" M 794 307.5 C 794 297.835016 852.6506912 290 925 290 C 997.3493088 290 1056 297.835016 1056 307.5 C 1056 317.164984 997.3493088 325 925 325 C 852.6506912 325 794 317.164984 794 307.5 Z" stroke-miterlimit="10" stroke-dasharray=""/></g><g><g><path fill="none" stroke="none"/><text fill="#000000" stroke="none" font-family="Arial" font-size="13px" font-style="normal" font-weight="bold" text-decoration="undefined" x="1067" y="330.5" text-anchor="middle" dominant-baseline="central" transform="matrix(1 0 0 1 -142 -22)">Cancel Reservation Request</text></g></g><g><path fill="#C0C0C0" stroke="none" paint-order="stroke fill markers" d=" M 761 386.5 C 761 376.835016 787.4151968 369 820 369 C 852.5848032 369 879 376.835016 879 386.5 C 879 396.164984 852.5848032 404 820 404 C 787.4151968 404 761 396.164984 761 386.5 Z" fill-opacity="0.2"/></g><g><path fill="#ffffff" stroke="none" paint-order="stroke fill markers" d=" M 754 379.5 C 754 369.835016 780.4151968 362 813 362 C 845.5848032 362 872 369.835016 872 379.5 C 872 389.164984 845.5848032 397 813 397 C 780.4151968 397 754 389.164984 754 379.5 Z"/></g><g><path fill="none" stroke="#000000" paint-order="fill stroke markers" d=" M 754 379.5 C 754 369.835016 780.4151968 362 813 362 C 845.5848032 362 872 369.835016 872 379.5 C 872 389.164984 845.5848032 397 813 397 C 780.4151968 397 754 389.164984 754 379.5 Z" stroke-miterlimit="10" stroke-dasharray=""/></g><g><g><path fill="none" stroke="none"/><text fill="#000000" stroke="none" font-family="Arial" font-size="13px" font-style="normal" font-weight="bold" text-decoration="undefined" x="955" y="402.5" text-anchor="middle" dominant-baseline="central" transform="matrix(1 0 0 1 -142 -22)">Add Review</text></g></g><g><path fill="#C0C0C0" stroke="none" paint-order="stroke fill markers" d=" M 785 258.5 C 785 248.835016 818.8024976 241 860.5 241 C 902.1975024000001 241 936 248.835016 936 258.5 C 936 268.164984 902.1975024000001 276 860.5 276 C 818.8024976 276 785 268.164984 785 258.5 Z" fill-opacity="0.2"/></g><g><path fill="#ffffff" stroke="none" paint-order="stroke fill markers" d=" M 778 251.5 C 778 241.835016 811.8024976 234 853.5 234 C 895.1975024000001 234 929 241.835016 929 251.5 C 929 261.164984 895.1975024000001 269 853.5 269 C 811.8024976 269 778 261.164984 778 251.5 Z"/></g><g><path fill="none" stroke="#000000" paint-order="fill stroke markers" d=" M 778 251.5 C 778 241.835016 811.8024976 234 853.5 234 C 895.1975024000001 234 929 241.835016 929 251.5 C 929 261.164984 895.1975024000001 269 853.5 269 C 811.8024976 269 778 261.164984 778 251.5 Z" stroke-miterlimit="10" stroke-dasharray=""/></g><g><g><path fill="none" stroke="none"/><text fill="#000000" stroke="none" font-family="Arial" font-size="13px" font-style="normal" font-weight="bold" text-decoration="undefined" x="995.5" y="274.5" text-anchor="middle" dominant-baseline="central" transform="matrix(1 0 0 1 -142 -22)">Pay reservation</text></g></g><g><path fill="#C0C0C0" stroke="none" paint-order="stroke fill markers" d=" M 361 242.5 C 361 232.835016 393.45935199999997 225 433.5 225 C 473.54064800000003 225 506 232.835016 506 242.5 C 506 252.164984 473.54064800000003 260 433.5 260 C 393.45935199999997 260 361 252.164984 361 242.5 Z" fill-opacity="0.2"/></g><g><path fill="#ffffff" stroke="none" paint-order="stroke fill markers" d=" M 354 235.5 C 354 225.835016 386.45935199999997 218 426.5 218 C 466.54064800000003 218 499 225.835016 499 235.5 C 499 245.164984 466.54064800000003 253 426.5 253 C 386.45935199999997 253 354 245.164984 354 235.5 Z"/></g><g><path fill="none" stroke="#000000" paint-order="fill stroke markers" d=" M 354 235.5 C 354 225.835016 386.45935199999997 218 426.5 218 C 466.54064800000003 218 499 225.835016 499 235.5 C 499 245.164984 466.54064800000003 253 426.5 253 C 386.45935199999997 253 354 245.164984 354 235.5 Z" stroke-miterlimit="10" stroke-dasharray=""/></g><g><g><path fill="none" stroke="none"/><text fill="#000000" stroke="none" font-family="Arial" font-size="13px" font-style="normal" font-weight="bold" text-decoration="undefined" x="568.5" y="258.5" text-anchor="middle" dominant-baseline="central" transform="matrix(1 0 0 1 -142 -22)">Deposit money</text></g></g><g><path fill="none" stroke="#000000" paint-order="fill stroke markers" d=" M 230 297 L 366 254" stroke-miterlimit="10" stroke-dasharray=""/></g><g><path fill="#C0C0C0" stroke="none" paint-order="stroke fill markers" d=" M 577 74.5 C 577 64.835016 608.5639216 57 647.5 57 C 686.4360784 57 718 64.835016 718 74.5 C 718 84.164984 686.4360784 92 647.5 92 C 608.5639216 92 577 84.164984 577 74.5 Z" fill-opacity="0.2"/></g><g><path fill="#ffffff" stroke="none" paint-order="stroke fill markers" d=" M 570 67.5 C 570 57.835015999999996 601.5639216 50 640.5 50 C 679.4360784 50 711 57.835015999999996 711 67.5 C 711 77.164984 679.4360784 85 640.5 85 C 601.5639216 85 570 77.164984 570 67.5 Z"/></g><g><path fill="none" stroke="#000000" paint-order="fill stroke markers" d=" M 570 67.5 C 570 57.835015999999996 601.5639216 50 640.5 50 C 679.4360784 50 711 57.835015999999996 711 67.5 C 711 77.164984 679.4360784 85 640.5 85 C 601.5639216 85 570 77.164984 570 67.5 Z" stroke-miterlimit="10" stroke-dasharray=""/></g><g><g><path fill="none" stroke="none"/><text fill="#000000" stroke="none" font-family="Arial" font-size="13px" font-style="normal" font-weight="bold" text-decoration="undefined" x="782.5" y="90.5" text-anchor="middle" dominant-baseline="central" transform="matrix(1 0 0 1 -142 -22)">Show Reviews</text></g></g><g><path fill="#C0C0C0" stroke="none" paint-order="stroke fill markers" d=" M 641 226.5 C 641 216.835016 668.3106272 209 702 209 C 735.6893728 209 763 216.835016 763 226.5 C 763 236.164984 735.6893728 244 702 244 C 668.3106272 244 641 236.164984 641 226.5 Z" fill-opacity="0.2"/></g><g><path fill="#ffffff" stroke="none" paint-order="stroke fill markers" d=" M 634 219.5 C 634 209.835016 661.3106272 202 695 202 C 728.6893728 202 756 209.835016 756 219.5 C 756 229.164984 728.6893728 237 695 237 C 661.3106272 237 634 229.164984 634 219.5 Z"/></g><g><path fill="none" stroke="#000000" paint-order="fill stroke markers" d=" M 634 219.5 C 634 209.835016 661.3106272 202 695 202 C 728.6893728 202 756 209.835016 756 219.5 C 756 229.164984 728.6893728 237 695 237 C 661.3106272 237 634 229.164984 634 219.5 Z" stroke-miterlimit="10" stroke-dasharray=""/></g><g><g><path fill="none" stroke="none"/><text fill="#000000" stroke="none" font-family="Arial" font-size="13px" font-style="normal" font-weight="bold" text-decoration="undefined" x="837" y="242.5" text-anchor="middle" dominant-baseline="central" transform="matrix(1 0 0 1 -142 -22)">Rate Review</text></g></g><g><path fill="#C0C0C0" stroke="none" paint-order="stroke fill markers" d=" M 297 306.5 C 297 296.835016 389.22933119999993 289 503 289 C 616.7706688000001 289 709 296.835016 709 306.5 C 709 316.164984 616.7706688000001 324 503 324 C 389.22933119999993 324 297 316.164984 297 306.5 Z" fill-opacity="0.2"/></g><g><path fill="#ffffff" stroke="none" paint-order="stroke fill markers" d=" M 290 299.5 C 290 289.835016 382.22933119999993 282 496 282 C 609.7706688000001 282 702 289.835016 702 299.5 C 702 309.164984 609.7706688000001 317 496 317 C 382.22933119999993 317 290 309.164984 290 299.5 Z"/></g><g><path fill="none" stroke="#000000" paint-order="fill stroke markers" d=" M 290 299.5 C 290 289.835016 382.22933119999993 282 496 282 C 609.7706688000001 282 702 289.835016 702 299.5 C 702 309.164984 609.7706688000001 317 496 317 C 382.22933119999993 317 290 309.164984 290 299.5 Z" stroke-miterlimit="10" stroke-dasharray=""/></g><g><g><path fill="none" stroke="none"/><text fill="#000000" stroke="none" font-family="Arial" font-size="13px" font-style="normal" font-weight="bold" text-decoration="undefined" x="638" y="322.5" text-anchor="middle" dominant-baseline="central" transform="matrix(1 0 0 1 -142 -22)">Show Rides and Reservation Request History</text></g></g><g><path fill="#C0C0C0" stroke="none" paint-order="stroke fill markers" d=" M 337 538.5 C 337 528.835016 395.20297600000004 521 467 521 C 538.797024 521 597 528.835016 597 538.5 C 597 548.164984 538.797024 556 467 556 C 395.20297600000004 556 337 548.164984 337 538.5 Z" fill-opacity="0.2"/></g><g><path fill="#ffffff" stroke="none" paint-order="stroke fill markers" d=" M 330 531.5 C 330 521.835016 388.20297600000004 514 460 514 C 531.797024 514 590 521.835016 590 531.5 C 590 541.164984 531.797024 549 460 549 C 388.20297600000004 549 330 541.164984 330 531.5 Z"/></g><g><path fill="none" stroke="#000000" paint-order="fill stroke markers" d=" M 330 531.5 C 330 521.835016 388.20297600000004 514 460 514 C 531.797024 514 590 521.835016 590 531.5 C 590 541.164984 531.797024 549 460 549 C 388.20297600000004 549 330 541.164984 330 531.5 Z" stroke-miterlimit="10" stroke-dasharray=""/></g><g><g><path fill="none" stroke="none"/><text fill="#000000" stroke="none" font-family="Arial" font-size="13px" font-style="normal" font-weight="bold" text-decoration="undefined" x="602" y="554.5" text-anchor="middle" dominant-baseline="central" transform="matrix(1 0 0 1 -142 -22)">Show Created Rides History</text></g></g><g><path fill="none" stroke="#000000" paint-order="fill stroke markers" d=" M 329 543 L 230 552" stroke-miterlimit="10" stroke-dasharray=""/></g><g><path fill="#C0C0C0" stroke="none" paint-order="stroke fill markers" d=" M 321 610.5 C 321 600.835016 396.66386880000005 593 490 593 C 583.3361312 593 659 600.835016 659 610.5 C 659 620.164984 583.3361312 628 490 628 C 396.66386880000005 628 321 620.164984 321 610.5 Z" fill-opacity="0.2"/></g><g><path fill="#ffffff" stroke="none" paint-order="stroke fill markers" d=" M 314 603.5 C 314 593.835016 389.66386880000005 586 483 586 C 576.3361312 586 652 593.835016 652 603.5 C 652 613.164984 576.3361312 621 483 621 C 389.66386880000005 621 314 613.164984 314 603.5 Z"/></g><g><path fill="none" stroke="#000000" paint-order="fill stroke markers" d=" M 314 603.5 C 314 593.835016 389.66386880000005 586 483 586 C 576.3361312 586 652 593.835016 652 603.5 C 652 613.164984 576.3361312 621 483 621 C 389.66386880000005 621 314 613.164984 314 603.5 Z" stroke-miterlimit="10" stroke-dasharray=""/></g><g><g><path fill="none" stroke="none"/><text fill="#000000" stroke="none" font-family="Arial" font-size="13px" font-style="normal" font-weight="bold" text-decoration="undefined" x="625" y="626.5" text-anchor="middle" dominant-baseline="central" transform="matrix(1 0 0 1 -142 -22)">Show Inbound Reservation Requests</text></g></g><g><path fill="#C0C0C0" stroke="none" paint-order="stroke fill markers" d=" M 729 642.5 C 729 632.835016 786.5314032 625 857.5 625 C 928.4685967999999 625 986 632.835016 986 642.5 C 986 652.164984 928.4685967999999 660 857.5 660 C 786.5314032 660 729 652.164984 729 642.5 Z" fill-opacity="0.2"/></g><g><path fill="#ffffff" stroke="none" paint-order="stroke fill markers" d=" M 722 635.5 C 722 625.835016 779.5314032 618 850.5 618 C 921.4685967999999 618 979 625.835016 979 635.5 C 979 645.164984 921.4685967999999 653 850.5 653 C 779.5314032 653 722 645.164984 722 635.5 Z"/></g><g><path fill="none" stroke="#000000" paint-order="fill stroke markers" d=" M 722 635.5 C 722 625.835016 779.5314032 618 850.5 618 C 921.4685967999999 618 979 625.835016 979 635.5 C 979 645.164984 921.4685967999999 653 850.5 653 C 779.5314032 653 722 645.164984 722 635.5 Z" stroke-miterlimit="10" stroke-dasharray=""/></g><g><g><path fill="none" stroke="none"/><text fill="#000000" stroke="none" font-family="Arial" font-size="13px" font-style="normal" font-weight="bold" text-decoration="undefined" x="992.5" y="658.5" text-anchor="middle" dominant-baseline="central" transform="matrix(1 0 0 1 -142 -22)">Reject Reservation Request</text></g></g><g><path fill="none" stroke="#000000" paint-order="fill stroke markers" d=" M 606 486 L 518 513" stroke-miterlimit="10" stroke-dasharray="3"/></g><g><path fill="none" stroke="#000000" paint-order="fill stroke markers" d=" M 526.4809096866292 505.9947040828214 L 518 513 L 528.9504009973016 514.0434165027907" stroke-miterlimit="10" stroke-dasharray=""/></g><g><rect fill="#ffffff" stroke="none" x="681" y="529" width="55.2880859375" height="13" transform="matrix(1 0 0 1 -142 -22)"/></g><g><g><path fill="none" stroke="none"/><text fill="#000000" stroke="none" font-family="Arial" font-size="13px" font-style="normal" font-weight="normal" text-decoration="undefined" x="708.64404296875" y="535.5" text-anchor="middle" dominant-baseline="central" transform="matrix(1 0 0 1 -142 -22)">+includes</text></g></g><g><path fill="none" stroke="#000000" paint-order="fill stroke markers" d=" M 380 585 L 230 559" stroke-miterlimit="10" stroke-dasharray=""/></g><g><path fill="none" stroke="#000000" paint-order="fill stroke markers" d=" M 721 624 L 653 618" stroke-miterlimit="10" stroke-dasharray="3"/></g><g><path fill="none" stroke="#000000" paint-order="fill stroke markers" d=" M 663.4933343368683 614.7000099250602 L 653 618 L 662.7533532266955 623.086462507019" stroke-miterlimit="10" stroke-dasharray=""/></g><g><rect fill="#ffffff" stroke="none" x="800" y="651" width="55.2880859375" height="13" transform="matrix(1 0 0 1 -142 -22)"/></g><g><g><path fill="none" stroke="none"/><text fill="#000000" stroke="none" font-family="Arial" font-size="13px" font-style="normal" font-weight="normal" text-decoration="undefined" x="827.64404296875" y="657.5" text-anchor="middle" dominant-baseline="central" transform="matrix(1 0 0 1 -142 -22)">+includes</text></g></g><g><path fill="none" stroke="#000000" paint-order="fill stroke markers" d=" M 569 79 L 461 97" stroke-miterlimit="10" stroke-dasharray="3"/></g><g><path fill="none" stroke="#000000" paint-order="fill stroke markers" d=" M 470.3323602733092 91.17702380829529 L 461 97 L 471.71644118557515 99.48150928189067" stroke-miterlimit="10" stroke-dasharray=""/></g><g><rect fill="#ffffff" stroke="none" x="632" y="118" width="55.2880859375" height="13" transform="matrix(1 0 0 1 -142 -22)"/></g><g><g><path fill="none" stroke="none"/><text fill="#000000" stroke="none" font-family="Arial" font-size="13px" font-style="normal" font-weight="normal" text-decoration="undefined" x="659.64404296875" y="124.5" text-anchor="middle" dominant-baseline="central" transform="matrix(1 0 0 1 -142 -22)">+includes</text></g></g><g><path fill="none" stroke="#000000" paint-order="fill stroke markers" d=" M 688 201 L 647 86" stroke-miterlimit="10" stroke-dasharray="3"/></g><g><path fill="none" stroke="#000000" paint-order="fill stroke markers" d=" M 654.3778626197982 94.15886898800225 L 647 86 L 646.447745100893 96.98612827735104" stroke-miterlimit="10" stroke-dasharray=""/></g><g><rect fill="#ffffff" stroke="none" x="767" y="163" width="55.2880859375" height="13" transform="matrix(1 0 0 1 -142 -22)"/></g><g><g><path fill="none" stroke="none"/><text fill="#000000" stroke="none" font-family="Arial" font-size="13px" font-style="normal" font-weight="normal" text-decoration="undefined" x="794.64404296875" y="169.5" text-anchor="middle" dominant-baseline="central" transform="matrix(1 0 0 1 -142 -22)">+includes</text></g></g><g><path fill="none" stroke="#000000" paint-order="fill stroke markers" d=" M 289 304 L 230 305" stroke-miterlimit="10" stroke-dasharray=""/></g><g><path fill="none" stroke="#000000" paint-order="fill stroke markers" d=" M 777 261 L 630 281" stroke-miterlimit="10" stroke-dasharray="3"/></g><g><path fill="none" stroke="#000000" paint-order="fill stroke markers" d=" M 639.5024060335195 275.4588557522717 L 630 281 L 640.6373964169911 283.8010350707881" stroke-miterlimit="10" stroke-dasharray=""/></g><g><rect fill="#ffffff" stroke="none" x="820" y="301" width="55.2880859375" height="13" transform="matrix(1 0 0 1 -142 -22)"/></g><g><g><path fill="none" stroke="none"/><text fill="#000000" stroke="none" font-family="Arial" font-size="13px" font-style="normal" font-weight="normal" text-decoration="undefined" x="847.64404296875" y="307.5" text-anchor="middle" dominant-baseline="central" transform="matrix(1 0 0 1 -142 -22)">+includes</text></g></g><g><path fill="none" stroke="#000000" paint-order="fill stroke markers" d=" M 793 305 L 703 303" stroke-miterlimit="10" stroke-dasharray="3"/></g><g><path fill="none" stroke="#000000" paint-order="fill stroke markers" d=" M 713.2536882342617 299.01730272371066 L 703 303 L 713.0666447340966 307.43426023114176" stroke-miterlimit="10" stroke-dasharray=""/></g><g><rect fill="#ffffff" stroke="none" x="862" y="334" width="55.2880859375" height="13" transform="matrix(1 0 0 1 -142 -22)"/></g><g><g><path fill="none" stroke="none"/><text fill="#000000" stroke="none" font-family="Arial" font-size="13px" font-style="normal" font-weight="normal" text-decoration="undefined" x="889.64404296875" y="340.5" text-anchor="middle" dominant-baseline="central" transform="matrix(1 0 0 1 -142 -22)">+includes</text></g></g><g><path fill="none" stroke="#000000" paint-order="fill stroke markers" d=" M 753 364 L 571 318" stroke-miterlimit="10" stroke-dasharray="3"/></g><g><path fill="none" stroke="#000000" paint-order="fill stroke markers" d=" M 581.8843479953199 316.40909814357514 L 571 318 L 579.8213337671651 324.5714587854046" stroke-miterlimit="10" stroke-dasharray=""/></g><g><rect fill="#ffffff" stroke="none" x="773" y="371" width="55.2880859375" height="13" transform="matrix(1 0 0 1 -142 -22)"/></g><g><g><path fill="none" stroke="none"/><text fill="#000000" stroke="none" font-family="Arial" font-size="13px" font-style="normal" font-weight="normal" text-decoration="undefined" x="800.64404296875" y="377.5" text-anchor="middle" dominant-baseline="central" transform="matrix(1 0 0 1 -142 -22)">+includes</text></g></g><g><path fill="none" stroke="#000000" paint-order="fill stroke markers" d=" M 628 86 L 507 281" stroke-miterlimit="10" stroke-dasharray="3"/></g><g><path fill="none" stroke="#000000" paint-order="fill stroke markers" d=" M 508.78145616839515 270.1452123963623 L 507 281 L 515.9351736599307 274.5841858141869" stroke-miterlimit="10" stroke-dasharray=""/></g><g><rect fill="#ffffff" stroke="none" x="694" y="206" width="55.2880859375" height="13" transform="matrix(1 0 0 1 -142 -22)"/></g><g><g><path fill="none" stroke="none"/><text fill="#000000" stroke="none" font-family="Arial" font-size="13px" font-style="normal" font-weight="normal" text-decoration="undefined" x="721.64404296875" y="212.5" text-anchor="middle" dominant-baseline="central" transform="matrix(1 0 0 1 -142 -22)">+includes</text></g></g><g><path fill="none" stroke="#000000" paint-order="fill stroke markers" d=" M 402 161 L 400 126" stroke-miterlimit="10" stroke-dasharray="3"/></g><g><path fill="none" stroke="#000000" paint-order="fill stroke markers" d=" M 404.7824403312936 135.90597115267437 L 400 126 L 396.37711661258334 136.38627536517208" stroke-miterlimit="10" stroke-dasharray=""/></g><g><rect fill="#ffffff" stroke="none" x="501" y="159" width="55.2880859375" height="13" transform="matrix(1 0 0 1 -142 -22)"/></g><g><g><path fill="none" stroke="none"/><text fill="#000000" stroke="none" font-family="Arial" font-size="13px" font-style="normal" font-weight="normal" text-decoration="undefined" x="528.64404296875" y="165.5" text-anchor="middle" dominant-baseline="central" transform="matrix(1 0 0 1 -142 -22)">+extends</text></g></g><g><path fill="none" stroke="#000000" paint-order="fill stroke markers" d=" M 230 301 L 633 230" stroke-miterlimit="10" stroke-dasharray=""/></g><g><path fill="#C0C0C0" stroke="none" paint-order="stroke fill markers" d=" M 729 578.5 C 729 568.835016 787.8745488 561 860.5 561 C 933.1254512 561 992 568.835016 992 578.5 C 992 588.164984 933.1254512 596 860.5 596 C 787.8745488 596 729 588.164984 729 578.5 Z" fill-opacity="0.2"/></g><g><path fill="#ffffff" stroke="none" paint-order="stroke fill markers" d=" M 722 571.5 C 722 561.835016 780.8745488 554 853.5 554 C 926.1254512 554 985 561.835016 985 571.5 C 985 581.164984 926.1254512 589 853.5 589 C 780.8745488 589 722 581.164984 722 571.5 Z"/></g><g><path fill="none" stroke="#000000" paint-order="fill stroke markers" d=" M 722 571.5 C 722 561.835016 780.8745488 554 853.5 554 C 926.1254512 554 985 561.835016 985 571.5 C 985 581.164984 926.1254512 589 853.5 589 C 780.8745488 589 722 581.164984 722 571.5 Z" stroke-miterlimit="10" stroke-dasharray=""/></g><g><g><path fill="none" stroke="none"/><text fill="#000000" stroke="none" font-family="Arial" font-size="13px" font-style="normal" font-weight="bold" text-decoration="undefined" x="995.5" y="594.5" text-anchor="middle" dominant-baseline="central" transform="matrix(1 0 0 1 -142 -22)">Accept Reservation Request</text></g></g><g><path fill="none" stroke="#000000" paint-order="fill stroke markers" d=" M 721 582 L 653 588" stroke-miterlimit="10" stroke-dasharray="3"/></g><g><path fill="none" stroke="#000000" paint-order="fill stroke markers" d=" M 662.7533532266955 582.913537492981 L 653 588 L 663.4933343368683 591.2999900749398" stroke-miterlimit="10" stroke-dasharray=""/></g><g><rect fill="#ffffff" stroke="none" x="803" y="615" width="55.2880859375" height="13" transform="matrix(1 0 0 1 -142 -22)"/></g><g><g><path fill="none" stroke="none"/><text fill="#000000" stroke="none" font-family="Arial" font-size="13px" font-style="normal" font-weight="normal" text-decoration="undefined" x="830.64404296875" y="621.5" text-anchor="middle" dominant-baseline="central" transform="matrix(1 0 0 1 -142 -22)">+includes</text></g></g></g></svg>